<svg width="800" height="800" viewBox="0 0 800 800" fill="none" xmlns="http://www.w3.org/2000/svg">
<path d="M177.778 422.222C177.778 471.311 152.911 511.111 122.222 511.111C91.5332 511.111 66.6665 471.311 66.6665 422.222C66.6665 373.133 91.5332 333.333 122.222 333.333C152.911 333.333 177.778 373.133 177.778 422.222ZM733.333 422.222C733.333 471.311 708.466 511.111 677.778 511.111C647.089 511.111 622.222 471.311 622.222 422.222C622.222 373.133 647.089 333.333 677.778 333.333C708.466 333.333 733.333 373.133 733.333 422.222Z" fill="#D4AB88"/>
<path d="M111.111 456.933C111.111 267.467 240.445 113.867 400 113.867C559.556 113.867 688.889 267.467 688.889 456.933C688.889 646.4 559.556 800 400 800C240.445 800 111.111 646.4 111.111 456.933Z" fill="#D4AB88"/>
<path d="M288.889 444.444C282.995 444.444 277.343 442.103 273.175 437.936C269.008 433.768 266.667 428.116 266.667 422.222V377.778C266.667 371.884 269.008 366.232 273.175 362.064C277.343 357.897 282.995 355.556 288.889 355.556C294.782 355.556 300.435 357.897 304.602 362.064C308.77 366.232 311.111 371.884 311.111 377.778V422.222C311.111 428.116 308.77 433.768 304.602 437.936C300.435 442.103 294.782 444.444 288.889 444.444ZM511.111 444.444C505.217 444.444 499.565 442.103 495.397 437.936C491.23 433.768 488.889 428.116 488.889 422.222V377.778C488.889 371.884 491.23 366.232 495.397 362.064C499.565 357.897 505.217 355.556 511.111 355.556C517.005 355.556 522.657 357.897 526.824 362.064C530.992 366.232 533.333 371.884 533.333 377.778V422.222C533.333 428.116 530.992 433.768 526.824 437.936C522.657 442.103 517.005 444.444 511.111 444.444Z" fill="#662113"/>
<path d="M422.222 533.333H377.778C371.884 533.333 366.232 530.992 362.064 526.825C357.897 522.657 355.556 517.005 355.556 511.111C355.556 505.217 357.897 499.565 362.064 495.398C366.232 491.23 371.884 488.889 377.778 488.889H422.222C428.116 488.889 433.768 491.23 437.936 495.398C442.103 499.565 444.445 505.217 444.445 511.111C444.445 517.005 442.103 522.657 437.936 526.825C433.768 530.992 428.116 533.333 422.222 533.333Z" fill="#C1694F"/>
<path d="M400 0C591.444 0 711.111 141.289 711.111 259.022C711.111 376.756 687.178 423.844 663.244 376.756L615.4 282.578C615.4 282.578 471.8 282.578 423.955 235.467C423.955 235.467 495.733 376.756 352.155 235.467C352.155 235.467 376.089 329.667 232.489 211.911C232.489 211.911 160.711 259.022 136.755 376.733C130.111 409.4 88.8887 376.756 88.8887 259.022C88.8887 141.267 184.622 0 400 0Z" fill="#963B22"/>
<path d="M400 659.444C307.4 659.444 237.956 610.556 400 610.556C562.044 610.556 492.6 659.444 400 659.444Z" fill="#B47642"/>
<path d="M304.005 628.5C377.505 639.164 419.826 639.609 497.005 630.5" stroke="black" stroke-width="5"/>
</svg>
