<svg xmlns="http://www.w3.org/2000/svg" xmlns:xlink="http://www.w3.org/1999/xlink" style="margin:auto;background:rgba(241, 242, 243, 0);display:block;z-index:1;position:relative" width="1366" height="625" preserveAspectRatio="xMidYMid" viewBox="0 0 1366 625">
<g transform="translate(683,312.5) scale(1,1) translate(-683,-312.5)"><path id="path0" d="M 1071.7046550319258 575.6471669629842
c 0 33.64583913049961 -8.23249255320735 9.66423038854776 -17.896722941755108 9.66423038854776
S 1035.9112091484155 609.2930060934839 1035.9112091484155 575.6471669629842
s 8.23249255320735 -9.66423038854776 17.896722941755108 -9.66423038854776
S 1071.7046550319258 542.0013278324845 1071.7046550319258 575.6471669629842
z" fill="none" stroke="none"></path>
<circle cx="0" cy="0" r="8.472992438478109" fill="#e2bb8b" opacity="0.9">
  <animateMotion begin="-8.739451128908511s" dur="10s" repeatCount="indefinite">
    <mpath xlink:href="#path0"></mpath>
  </animateMotion>
</circle><path id="path1" d="M 211.904118786546 248.27331729064264
c 0 26.518619694069585 -6.488598435782983 7.617050337658285 -14.105648773441269 7.617050337658285
S 183.6928212396635 274.7919369847122 183.6928212396635 248.27331729064264
s 6.488598435782983 -7.617050337658285 14.105648773441269 -7.617050337658285
S 211.904118786546 221.75469759657307 211.904118786546 248.27331729064264
z" fill="none" stroke="none"></path>
<circle cx="0" cy="0" r="7.1932555117610795" fill="#e2bb8b" opacity="0.9">
  <animateMotion begin="-9.94863599371464s" dur="10s" repeatCount="indefinite">
    <mpath xlink:href="#path1"></mpath>
  </animateMotion>
</circle><path id="path2" d="M 112.11424732127088 318.59698105029764
c 0 20.085263132470267 -4.914479277093788 5.769171325284013 -10.683650602377801 5.769171325284013
S 90.74694611651529 338.68224418276793 90.74694611651529 318.59698105029764
s 4.914479277093788 -5.769171325284013 10.683650602377801 -5.769171325284013
S 112.11424732127088 298.51171791782735 112.11424732127088 318.59698105029764
z" fill="none" stroke="none"></path>
<circle cx="0" cy="0" r="5.954173289592238" fill="#df1317" opacity="0.9">
  <animateMotion begin="-6.73679499394636s" dur="10s" repeatCount="indefinite">
    <mpath xlink:href="#path2"></mpath>
  </animateMotion>
</circle><path id="path3" d="M 227.10805055935015 402.1512882418366
c 0 37.48897487003534 -9.172834276710773 10.768109803095257 -19.94094407980603 10.768109803095257
S 187.2261623997381 439.64026311187195 187.2261623997381 402.1512882418366
s 9.172834276710773 -10.768109803095257 19.94094407980603 -10.768109803095257
S 227.10805055935015 364.66231337180125 227.10805055935015 402.1512882418366
z" fill="none" stroke="none"></path>
<circle cx="0" cy="0" r="7.748960124109038" fill="#194645" opacity="0.9">
  <animateMotion begin="-3.6079965355664556s" dur="10s" repeatCount="indefinite">
    <mpath xlink:href="#path3"></mpath>
  </animateMotion>
</circle><path id="path4" d="M 106.48247469472322 48.87467860174981
c 0 29.64709645644116 -7.254076792533475 8.515655365147994 -15.769732157681469 8.515655365147994
S 74.94301037936027 78.52177505819097 74.94301037936027 48.87467860174981
s 7.254076792533475 -8.515655365147994 15.769732157681469 -8.515655365147994
S 106.48247469472322 19.227582145308645 106.48247469472322 48.87467860174981
z" fill="none" stroke="none"></path>
<circle cx="0" cy="0" r="8.195446067123255" fill="#91bcc6" opacity="0.9">
  <animateMotion begin="-1.91987536666679s" dur="10s" repeatCount="indefinite">
    <mpath xlink:href="#path4"></mpath>
  </animateMotion>
</circle><path id="path5" d="M 1015.3639298731304 52.84948531483701
c 0 37.5074264206496 -9.177349017818518 10.773409716569567 -19.950758734388085 10.773409716569567
S 975.4624124043543 90.35691173548662 975.4624124043543 52.84948531483701
s 9.177349017818518 -10.773409716569567 19.950758734388085 -10.773409716569567
S 1015.3639298731304 15.34205889418741 1015.3639298731304 52.84948531483701
z" fill="none" stroke="none"></path>
<circle cx="0" cy="0" r="8.527736464494279" fill="#0a69aa" opacity="0.9">
  <animateMotion begin="-2.9653214013168983s" dur="10s" repeatCount="indefinite">
    <mpath xlink:href="#path5"></mpath>
  </animateMotion>
</circle><path id="path6" d="M 768.7907289039814 459.0023794980005
c 0 21.61875727637952 -5.289695929326903 6.2096430474707125 -11.499338976797615 6.2096430474707125
S 745.7920509503862 480.62113677438003 745.7920509503862 459.0023794980005
s 5.289695929326903 -6.2096430474707125 11.499338976797615 -6.2096430474707125
S 768.7907289039814 437.38362222162095 768.7907289039814 459.0023794980005
z" fill="none" stroke="none"></path>
<circle cx="0" cy="0" r="6.919668321645071" fill="#194645" opacity="0.9">
  <animateMotion begin="-4.996322750429951s" dur="10s" repeatCount="indefinite">
    <mpath xlink:href="#path6"></mpath>
  </animateMotion>
</circle><path id="path7" d="M 931.6432378243492 380.1594573930135
c 0 36.92842599091943 -9.035678699905818 10.607101082498135 -19.642779782403952 10.607101082498135
S 892.3576782595412 417.08788338393293 892.3576782595412 380.1594573930135
s 9.035678699905818 -10.607101082498135 19.642779782403952 -10.607101082498135
S 931.6432378243492 343.23103140209406 931.6432378243492 380.1594573930135
z" fill="none" stroke="none"></path>
<circle cx="0" cy="0" r="8.243752296810179" fill="#df1317" opacity="0.9">
  <animateMotion begin="-1.1767198569200232s" dur="10s" repeatCount="indefinite">
    <mpath xlink:href="#path7"></mpath>
  </animateMotion>
</circle><path id="path8" d="M 113.53564964445033 15.641603195324544
c 0 22.001958235766853 -5.383457866198271 6.319711408145798 -11.70316927434407 6.319711408145798
S 90.12931109576218 37.6435614310914 90.12931109576218 15.641603195324544
s 5.383457866198271 -6.319711408145798 11.70316927434407 -6.319711408145798
S 113.53564964445033 -6.360355040442309 113.53564964445033 15.641603195324544
z" fill="none" stroke="none"></path>
<circle cx="0" cy="0" r="5.201524692625361" fill="#07abcc" opacity="0.9">
  <animateMotion begin="-4.254621838004207s" dur="10s" repeatCount="indefinite">
    <mpath xlink:href="#path8"></mpath>
  </animateMotion>
</circle><path id="path9" d="M 1091.545464208389 152.27767381193513
c 0 32.3405914803407 -7.913123447317405 9.289318829459564 -17.202442276776967 9.289318829459564
S 1057.140579654835 184.61826529227582 1057.140579654835 152.27767381193513
s 7.913123447317405 -9.289318829459564 17.202442276776967 -9.289318829459564
S 1091.545464208389 119.93708233159444 1091.545464208389 152.27767381193513
z" fill="none" stroke="none"></path>
<circle cx="0" cy="0" r="8.7999256661555" fill="#0a69aa" opacity="0.9">
  <animateMotion begin="-0.9698390164591952s" dur="10s" repeatCount="indefinite">
    <mpath xlink:href="#path9"></mpath>
  </animateMotion>
</circle><path id="path10" d="M 752.9970447763737 12.460358325540653
c 0 36.87689807922707 -9.023070806619387 10.592300512118413 -19.6153713187378 10.592300512118413
S 713.766302138898 49.33725640476772 713.766302138898 12.460358325540653
s 9.023070806619387 -10.592300512118413 19.6153713187378 -10.592300512118413
S 752.9970447763737 -24.416539753686415 752.9970447763737 12.460358325540653
z" fill="none" stroke="none"></path>
<circle cx="0" cy="0" r="7.73404928482447" fill="#e4934b" opacity="0.9">
  <animateMotion begin="-8.428223578731174s" dur="10s" repeatCount="indefinite">
    <mpath xlink:href="#path10"></mpath>
  </animateMotion>
</circle><path id="path11" d="M 1089.3293698630453 572.8884452081915
c 0 37.21742696409839 -9.106391703981519 10.690112000326133 -19.79650370430765 10.690112000326133
S 1049.7363624544298 610.1058721722899 1049.7363624544298 572.8884452081915
s 9.106391703981519 -10.690112000326133 19.79650370430765 -10.690112000326133
S 1089.3293698630453 535.671018244093 1089.3293698630453 572.8884452081915
z" fill="none" stroke="none"></path>
<circle cx="0" cy="0" r="4.784479288049967" fill="#e1e7e7" opacity="0.9">
  <animateMotion begin="-5.473066162071449s" dur="10s" repeatCount="indefinite">
    <mpath xlink:href="#path11"></mpath>
  </animateMotion>
</circle><path id="path12" d="M 340.5803529288641 64.04918073048407
c 0 31.513592688196724 -7.710772679026857 9.051776623205441 -16.762549302232298 9.051776623205441
S 307.0552543243995 95.56277341868079 307.0552543243995 64.04918073048407
s 7.710772679026857 -9.051776623205441 16.762549302232298 -9.051776623205441
S 340.5803529288641 32.535588042287344 340.5803529288641 64.04918073048407
z" fill="none" stroke="none"></path>
<circle cx="0" cy="0" r="4.760485193397918" fill="#07abcc" opacity="0.9">
  <animateMotion begin="-6.104637053085112s" dur="10s" repeatCount="indefinite">
    <mpath xlink:href="#path12"></mpath>
  </animateMotion>
</circle><path id="path13" d="M 322.65982135084687 267.7241566537858
c 0 27.295911718958923 -6.678786909958034 7.840315068211606 -14.51910197816964 7.840315068211606
S 293.62161739450755 295.02006837274473 293.62161739450755 267.7241566537858
s 6.678786909958034 -7.840315068211606 14.51910197816964 -7.840315068211606
S 322.65982135084687 240.4282449348269 322.65982135084687 267.7241566537858
z" fill="none" stroke="none"></path>
<circle cx="0" cy="0" r="5.433158314941449" fill="#e4934b" opacity="0.9">
  <animateMotion begin="-8.185183433538771s" dur="10s" repeatCount="indefinite">
    <mpath xlink:href="#path13"></mpath>
  </animateMotion>
</circle><path id="path14" d="M 969.1588388605516 242.94550531894572
c 0 27.49672589966562 -6.727922294599034 7.897995737137997 -14.625918031737031 7.897995737137997
S 939.9070027970776 270.44223121861137 939.9070027970776 242.94550531894572
s 6.727922294599034 -7.897995737137997 14.625918031737031 -7.897995737137997
S 969.1588388605516 215.4487794192801 969.1588388605516 242.94550531894572
z" fill="none" stroke="none"></path>
<circle cx="0" cy="0" r="6.227410842420081" fill="#07abcc" opacity="0.9">
  <animateMotion begin="-5.842480976795372s" dur="10s" repeatCount="indefinite">
    <mpath xlink:href="#path14"></mpath>
  </animateMotion>
</circle><path id="path15" d="M 1004.2531655370966 148.66187314109752
c 0 18.85602304878117 -4.613707767254968 5.416091726777571 -10.029799494032538 5.416091726777571
S 984.1935665490315 167.51789618987868 984.1935665490315 148.66187314109752
s 4.613707767254968 -5.416091726777571 10.029799494032538 -5.416091726777571
S 1004.2531655370966 129.80585009231635 1004.2531655370966 148.66187314109752
z" fill="none" stroke="none"></path>
<circle cx="0" cy="0" r="4.655793864922474" fill="#194645" opacity="0.9">
  <animateMotion begin="-2.725293359787009s" dur="10s" repeatCount="indefinite">
    <mpath xlink:href="#path15"></mpath>
  </animateMotion>
</circle><path id="path16" d="M 240.53045800517685 328.63194110073914
c 0 35.191811123486424 -8.610762296172208 10.108286173767377 -18.719048469939587 10.108286173767377
S 203.09236106529767 363.8237522242256 203.09236106529767 328.63194110073914
s 8.610762296172208 -10.108286173767377 18.719048469939587 -10.108286173767377
S 240.53045800517685 293.4401299772527 240.53045800517685 328.63194110073914
z" fill="none" stroke="none"></path>
<circle cx="0" cy="0" r="8.095371453170227" fill="#e2bb8b" opacity="0.9">
  <animateMotion begin="-4.533426586108911s" dur="10s" repeatCount="indefinite">
    <mpath xlink:href="#path16"></mpath>
  </animateMotion>
</circle><path id="path17" d="M 594.9234216530157 189.0163226136968
c 0 29.50835916925657 -7.220130435030861 8.4758052932971 -15.69593572832796 8.4758052932971
S 563.5315501963597 218.52468178295337 563.5315501963597 189.0163226136968
s 7.220130435030861 -8.4758052932971 15.69593572832796 -8.4758052932971
S 594.9234216530157 159.5079634444402 594.9234216530157 189.0163226136968
z" fill="none" stroke="none"></path>
<circle cx="0" cy="0" r="7.717271748588714" fill="#e1e7e7" opacity="0.9">
  <animateMotion begin="-7.727570411024285s" dur="10s" repeatCount="indefinite">
    <mpath xlink:href="#path17"></mpath>
  </animateMotion>
</circle><path id="path18" d="M 810.5902917559387 556.8952724587735
c 0 19.825761828462007 -4.850984277176873 5.694633716685895 -10.545617993862768 5.694633716685895
S 789.4990557682132 576.7210342872355 789.4990557682132 556.8952724587735
s 4.850984277176873 -5.694633716685895 10.545617993862768 -5.694633716685895
S 810.5902917559387 537.0695106303116 810.5902917559387 556.8952724587735
z" fill="none" stroke="none"></path>
<circle cx="0" cy="0" r="7.664246638854376" fill="#e1e7e7" opacity="0.9">
  <animateMotion begin="-8.973652818415419s" dur="10s" repeatCount="indefinite">
    <mpath xlink:href="#path18"></mpath>
  </animateMotion>
</circle><path id="path19" d="M 1064.8883255087933 431.37850653004284
c 0 36.826285832000714 -9.01068695889379 10.577762951744885 -19.588449910638676 10.577762951744885
S 1025.7114256875159 468.2047923620436 1025.7114256875159 431.37850653004284
s 9.01068695889379 -10.577762951744885 19.588449910638676 -10.577762951744885
S 1064.8883255087933 394.5522206980421 1064.8883255087933 431.37850653004284
z" fill="none" stroke="none"></path>
<circle cx="0" cy="0" r="8.255076384794405" fill="#e2bb8b" opacity="0.9">
  <animateMotion begin="-3.8925159960646827s" dur="10s" repeatCount="indefinite">
    <mpath xlink:href="#path19"></mpath>
  </animateMotion>
</circle><path id="path20" d="M 810.6690707117995 542.0799452540599
c 0 32.81682165337315 -8.02964785135726 9.42610834724548 -17.45575619860274 9.42610834724548
S 775.7575583145939 574.8967669074331 775.7575583145939 542.0799452540599
s 8.02964785135726 -9.42610834724548 17.45575619860274 -9.42610834724548
S 810.6690707117995 509.26312360068675 810.6690707117995 542.0799452540599
z" fill="none" stroke="none"></path>
<circle cx="0" cy="0" r="8.384218177979555" fill="#07abcc" opacity="0.9">
  <animateMotion begin="-5.903678999381863s" dur="10s" repeatCount="indefinite">
    <mpath xlink:href="#path20"></mpath>
  </animateMotion>
</circle><path id="path21" d="M 721.5065843944574 66.177673710829
c 0 28.8819250776891 -7.066854008370736 8.29587209678304 -15.362726105153776 8.29587209678304
S 690.7811321841498 95.0595987885181 690.7811321841498 66.177673710829
s 7.066854008370736 -8.29587209678304 15.362726105153776 -8.29587209678304
S 721.5065843944574 37.295748633139894 721.5065843944574 66.177673710829
z" fill="none" stroke="none"></path>
<circle cx="0" cy="0" r="8.553072585899054" fill="#07abcc" opacity="0.9">
  <animateMotion begin="-6.1210930374253785s" dur="10s" repeatCount="indefinite">
    <mpath xlink:href="#path21"></mpath>
  </animateMotion>
</circle><path id="path22" d="M 51.63264907312931 150.40687382405125
c 0 25.236331476312213 -6.1748470633529875 7.2487335091535074 -13.423580572506495 7.2487335091535074
S 24.785487928116318 175.64320530036346 24.785487928116318 150.40687382405125
s 6.1748470633529875 -7.2487335091535074 13.423580572506495 -7.2487335091535074
S 51.63264907312931 125.17054234773903 51.63264907312931 150.40687382405125
z" fill="none" stroke="none"></path>
<circle cx="0" cy="0" r="7.687910883915113" fill="#07abcc" opacity="0.9">
  <animateMotion begin="-4.550644147261567s" dur="10s" repeatCount="indefinite">
    <mpath xlink:href="#path22"></mpath>
  </animateMotion>
</circle><path id="path23" d="M 1060.225448704211 483.8151554596918
c 0 35.240832613111316 -8.622756915974044 10.122366814404314 -18.745123730378356 10.122366814404314
S 1022.7352012434543 519.0559880728032 1022.7352012434543 483.8151554596918
s 8.622756915974044 -10.122366814404314 18.745123730378356 -10.122366814404314
S 1060.225448704211 448.5743228465805 1060.225448704211 483.8151554596918
z" fill="none" stroke="none"></path>
<circle cx="0" cy="0" r="7.082953030493657" fill="#e2bb8b" opacity="0.9">
  <animateMotion begin="-9.99975560147156s" dur="10s" repeatCount="indefinite">
    <mpath xlink:href="#path23"></mpath>
  </animateMotion>
</circle><path id="path24" d="M 1226.7409492187455 417.7691582960508
c 0 29.979670703969347 -7.335451342460584 8.6111820107146 -15.946633353175184 8.6111820107146
S 1194.847682512395 447.7488290000202 1194.847682512395 417.7691582960508
s 7.335451342460584 -8.6111820107146 15.946633353175184 -8.6111820107146
S 1226.7409492187455 387.78948759208146 1226.7409492187455 417.7691582960508
z" fill="none" stroke="none"></path>
<circle cx="0" cy="0" r="8.471226840111168" fill="#07abcc" opacity="0.9">
  <animateMotion begin="-6.816512229679946s" dur="10s" repeatCount="indefinite">
    <mpath xlink:href="#path24"></mpath>
  </animateMotion>
</circle><path id="path25" d="M 588.3892080745387 518.4020423594269
c 0 22.61009801720289 -5.532258025485813 6.494389856005086 -12.026647881490899 6.494389856005086
S 564.3359123115569 541.0121403766298 564.3359123115569 518.4020423594269
s 5.532258025485813 -6.494389856005086 12.026647881490899 -6.494389856005086
S 588.3892080745387 495.791944342224 588.3892080745387 518.4020423594269
z" fill="none" stroke="none"></path>
<circle cx="0" cy="0" r="8.250363298467978" fill="#91bcc6" opacity="0.9">
  <animateMotion begin="-8.676623568276565s" dur="10s" repeatCount="indefinite">
    <mpath xlink:href="#path25"></mpath>
  </animateMotion>
</circle><path id="path26" d="M 710.6284449632535 185.76436385048265
c 0 24.67083809670971 -6.036481661960885 7.086304559693214 -13.1227862216541 7.086304559693214
S 684.3828725199453 210.43520194719235 684.3828725199453 185.76436385048265
s 6.036481661960885 -7.086304559693214 13.1227862216541 -7.086304559693214
S 710.6284449632535 161.09352575377295 710.6284449632535 185.76436385048265
z" fill="none" stroke="none"></path>
<circle cx="0" cy="0" r="6.460135161764264" fill="#df1317" opacity="0.9">
  <animateMotion begin="-7.345161979501295s" dur="10s" repeatCount="indefinite">
    <mpath xlink:href="#path26"></mpath>
  </animateMotion>
</circle><path id="path27" d="M 653.5477320585707 139.96616924423688
c 0 31.706862910140075 -7.758062201417251 9.107290410359383 -16.865352611776633 9.107290410359383
S 619.8170268350174 171.67303215437695 619.8170268350174 139.96616924423688
s 7.758062201417251 -9.107290410359383 16.865352611776633 -9.107290410359383
S 653.5477320585707 108.2593063340968 653.5477320585707 139.96616924423688
z" fill="none" stroke="none"></path>
<circle cx="0" cy="0" r="7.7202327711555805" fill="#0a69aa" opacity="0.9">
  <animateMotion begin="-2.7592087074424865s" dur="10s" repeatCount="indefinite">
    <mpath xlink:href="#path27"></mpath>
  </animateMotion>
</circle><path id="path28" d="M 42.96832178437007 299.20395461218135
c 0 21.97321857236965 -5.376425820898956 6.311456398446602 -11.687882219345557 6.311456398446602
S 19.592557345678955 321.177173184551 19.592557345678955 299.20395461218135
s 5.376425820898956 -6.311456398446602 11.687882219345557 -6.311456398446602
S 42.96832178437007 277.2307360398117 42.96832178437007 299.20395461218135
z" fill="none" stroke="none"></path>
<circle cx="0" cy="0" r="6.270897952629801" fill="#0a69aa" opacity="0.9">
  <animateMotion begin="-8.344734513294547s" dur="10s" repeatCount="indefinite">
    <mpath xlink:href="#path28"></mpath>
  </animateMotion>
</circle><path id="path29" d="M 378.5042758286772 268.278497202249
c 0 28.46231695066269 -6.964183934736615 8.17534635816907 -15.139530292905686 8.17534635816907
S 348.2252152428658 296.7408141529117 348.2252152428658 268.278497202249
s 6.964183934736615 -8.17534635816907 15.139530292905686 -8.17534635816907
S 378.5042758286772 239.81618025158633 378.5042758286772 268.278497202249
z" fill="none" stroke="none"></path>
<circle cx="0" cy="0" r="7.970767288580811" fill="#e4934b" opacity="0.9">
  <animateMotion begin="-8.419674604692373s" dur="10s" repeatCount="indefinite">
    <mpath xlink:href="#path29"></mpath>
  </animateMotion>
</circle><path id="path30" d="M 854.2212419861412 408.8155901646458
c 0 27.662403960740217 -6.7684605435853715 7.945584116382828 -14.714044659968199 7.945584116382828
S 824.7931526662048 436.47799412538603 824.7931526662048 408.8155901646458
s 6.7684605435853715 -7.945584116382828 14.714044659968199 -7.945584116382828
S 854.2212419861412 381.1531862039056 854.2212419861412 408.8155901646458
z" fill="none" stroke="none"></path>
<circle cx="0" cy="0" r="6.250976509297879" fill="#194645" opacity="0.9">
  <animateMotion begin="-7.981133430924201s" dur="10s" repeatCount="indefinite">
    <mpath xlink:href="#path30"></mpath>
  </animateMotion>
</circle><path id="path31" d="M 816.5355888346045 285.86245514242205
c 0 22.147918344767916 -5.419171509890021 6.361636120305678 -11.7808076301957 6.361636120305678
S 792.9739735742131 308.01037348718995 792.9739735742131 285.86245514242205
s 5.419171509890021 -6.361636120305678 11.7808076301957 -6.361636120305678
S 816.5355888346045 263.71453679765415 816.5355888346045 285.86245514242205
z" fill="none" stroke="none"></path>
<circle cx="0" cy="0" r="8.157323608741686" fill="#07abcc" opacity="0.9">
  <animateMotion begin="-2.320257242435584s" dur="10s" repeatCount="indefinite">
    <mpath xlink:href="#path31"></mpath>
  </animateMotion>
</circle><path id="path32" d="M 871.4873664669415 600.8337849092079
c 0 27.749580216819396 -6.7897909041153826 7.970624104831103 -14.760415008946486 7.970624104831103
S 841.9665364490486 628.5833651260273 841.9665364490486 600.8337849092079
s 6.7897909041153826 -7.970624104831103 14.760415008946486 -7.970624104831103
S 871.4873664669415 573.0842046923885 871.4873664669415 600.8337849092079
z" fill="none" stroke="none"></path>
<circle cx="0" cy="0" r="7.954719160945818" fill="#e2bb8b" opacity="0.9">
  <animateMotion begin="-6.505620476485667s" dur="10s" repeatCount="indefinite">
    <mpath xlink:href="#path32"></mpath>
  </animateMotion>
</circle><path id="path33" d="M 1045.29155337006 585.7042566546301
c 0 32.164498003156524 -7.870036745453191 9.238738788140704 -17.108775533593896 9.238738788140704
S 1011.0740023028723 617.8687546577866 1011.0740023028723 585.7042566546301
s 7.870036745453191 -9.238738788140704 17.108775533593896 -9.238738788140704
S 1045.29155337006 553.5397586514736 1045.29155337006 585.7042566546301
z" fill="none" stroke="none"></path>
<circle cx="0" cy="0" r="7.59242328791105" fill="#e1e7e7" opacity="0.9">
  <animateMotion begin="-9.668547829385894s" dur="10s" repeatCount="indefinite">
    <mpath xlink:href="#path33"></mpath>
  </animateMotion>
</circle><path id="path34" d="M 1254.2698940134019 189.92271664218177
c 0 26.975442983689234 -6.600374347072897 7.748265537868185 -14.34863988494108 7.748265537868185
S 1225.5726142435196 216.89815962587102 1225.5726142435196 189.92271664218177
s 6.600374347072897 -7.748265537868185 14.34863988494108 -7.748265537868185
S 1254.2698940134019 162.94727365849252 1254.2698940134019 189.92271664218177
z" fill="none" stroke="none"></path>
<circle cx="0" cy="0" r="6.775901202755993" fill="#e4934b" opacity="0.9">
  <animateMotion begin="-7.815279279993479s" dur="10s" repeatCount="indefinite">
    <mpath xlink:href="#path34"></mpath>
  </animateMotion>
</circle><path id="path35" d="M 709.6117999575176 406.11918941417747
c 0 29.78059032024913 -7.286740184741807 8.5539993473056 -15.840739532047408 8.5539993473056
S 677.9303208934227 435.8997797344266 677.9303208934227 406.11918941417747
s 7.286740184741807 -8.5539993473056 15.840739532047408 -8.5539993473056
S 709.6117999575176 376.33859909392834 709.6117999575176 406.11918941417747
z" fill="none" stroke="none"></path>
<circle cx="0" cy="0" r="5.080422724834127" fill="#e4934b" opacity="0.9">
  <animateMotion begin="-8.223586038007948s" dur="10s" repeatCount="indefinite">
    <mpath xlink:href="#path35"></mpath>
  </animateMotion>
</circle><path id="path36" d="M 927.9938512813642 63.551663915784374
c 0 31.1576780838703 -7.623687190734222 8.949545832601045 -16.573233023335266 8.949545832601045
S 894.8473852346935 94.70934199965467 894.8473852346935 63.551663915784374
s 7.623687190734222 -8.949545832601045 16.573233023335266 -8.949545832601045
S 927.9938512813642 32.39398583191407 927.9938512813642 63.551663915784374
z" fill="none" stroke="none"></path>
<circle cx="0" cy="0" r="6.307993872811703" fill="#0a69aa" opacity="0.9">
  <animateMotion begin="-9.964938479253071s" dur="10s" repeatCount="indefinite">
    <mpath xlink:href="#path36"></mpath>
  </animateMotion>
</circle><path id="path37" d="M 1215.6345800238882 409.3628886973512
c 0 33.873851843476196 -8.288282897871834 9.729723401849546 -18.018006299721378 9.729723401849546
S 1179.5985674244457 443.2367405408274 1179.5985674244457 409.3628886973512
s 8.288282897871834 -9.729723401849546 18.018006299721378 -9.729723401849546
S 1215.6345800238882 375.489036853875 1215.6345800238882 409.3628886973512
z" fill="none" stroke="none"></path>
<circle cx="0" cy="0" r="5.749918644515293" fill="#0a69aa" opacity="0.9">
  <animateMotion begin="-1.4344733095055329s" dur="10s" repeatCount="indefinite">
    <mpath xlink:href="#path37"></mpath>
  </animateMotion>
</circle><path id="path38" d="M 565.6542250006769 523.8185561138706
c 0 29.23429648203218 -7.1530725434759574 8.397085159732647 -15.550157703208605 8.397085159732647
S 534.5539095942597 553.0528525959028 534.5539095942597 523.8185561138706
s 7.1530725434759574 -8.397085159732647 15.550157703208605 -8.397085159732647
S 565.6542250006769 494.58425963183845 565.6542250006769 523.8185561138706
z" fill="none" stroke="none"></path>
<circle cx="0" cy="0" r="6.441420651962533" fill="#e2bb8b" opacity="0.9">
  <animateMotion begin="-4.268783125961084s" dur="10s" repeatCount="indefinite">
    <mpath xlink:href="#path38"></mpath>
  </animateMotion>
</circle><path id="path39" d="M 964.2285195711053 340.57131351265963
c 0 28.759045277129605 -7.036787674191285 8.260576834920206 -15.29736450911149 8.260576834920206
S 933.6337905528823 369.3303587897892 933.6337905528823 340.57131351265963
s 7.036787674191285 -8.260576834920206 15.29736450911149 -8.260576834920206
S 964.2285195711053 311.81226823553004 964.2285195711053 340.57131351265963
z" fill="none" stroke="none"></path>
<circle cx="0" cy="0" r="7.114048323026918" fill="#194645" opacity="0.9">
  <animateMotion begin="-0.9875823595378552s" dur="10s" repeatCount="indefinite">
    <mpath xlink:href="#path39"></mpath>
  </animateMotion>
</circle><path id="path40" d="M 991.8676812425318 21.765429744359153
c 0 32.516427247469046 -7.956147092465829 9.33982484767728 -17.295971940143108 9.33982484767728
S 957.2757373622456 54.2818569918282 957.2757373622456 21.765429744359153
s 7.956147092465829 -9.33982484767728 17.295971940143108 -9.33982484767728
S 991.8676812425318 -10.750997503109893 991.8676812425318 21.765429744359153
z" fill="none" stroke="none"></path>
<circle cx="0" cy="0" r="7.583620822456172" fill="#07abcc" opacity="0.9">
  <animateMotion begin="-8.242791154008174s" dur="10s" repeatCount="indefinite">
    <mpath xlink:href="#path40"></mpath>
  </animateMotion>
</circle><path id="path41" d="M 1315.0185902683108 17.014880683321522
c 0 32.512155626187706 -7.955101908535289 9.338597892628384 -17.293699801163672 9.338597892628384
S 1280.4311906659834 49.52703630950923 1280.4311906659834 17.014880683321522
s 7.955101908535289 -9.338597892628384 17.293699801163672 -9.338597892628384
S 1315.0185902683108 -15.497274942866184 1315.0185902683108 17.014880683321522
z" fill="none" stroke="none"></path>
<circle cx="0" cy="0" r="7.875933829501298" fill="#e1e7e7" opacity="0.9">
  <animateMotion begin="-0.5447554339664262s" dur="10s" repeatCount="indefinite">
    <mpath xlink:href="#path41"></mpath>
  </animateMotion>
</circle><path id="path42" d="M 1092.2623477962036 331.2695735050775
c 0 34.19956077792684 -8.367977637152311 9.823278095787497 -18.19125573293981 9.823278095787497
S 1055.8798363303238 365.46913428300434 1055.8798363303238 331.2695735050775
s 8.367977637152311 -9.823278095787497 18.19125573293981 -9.823278095787497
S 1092.2623477962036 297.0700127271507 1092.2623477962036 331.2695735050775
z" fill="none" stroke="none"></path>
<circle cx="0" cy="0" r="8.85871417835393" fill="#194645" opacity="0.9">
  <animateMotion begin="-4.77073456873959s" dur="10s" repeatCount="indefinite">
    <mpath xlink:href="#path42"></mpath>
  </animateMotion>
</circle><path id="path43" d="M 1157.7295106712033 239.1407611107319
c 0 24.805616284465984 -6.069459303645932 7.125017443410442 -13.194476747056374 7.125017443410442
S 1131.3405571770907 263.9463773951979 1131.3405571770907 239.1407611107319
s 6.069459303645932 -7.125017443410442 13.194476747056374 -7.125017443410442
S 1157.7295106712033 214.3351448262659 1157.7295106712033 239.1407611107319
z" fill="none" stroke="none"></path>
<circle cx="0" cy="0" r="6.793634004596511" fill="#0a69aa" opacity="0.9">
  <animateMotion begin="-6.991118215614199s" dur="10s" repeatCount="indefinite">
    <mpath xlink:href="#path43"></mpath>
  </animateMotion>
</circle><path id="path44" d="M 784.6755280032182 412.26145991874
c 0 32.67586778489335 -7.995159138856883 9.385621597788516 -17.3807807366454 9.385621597788516
S 749.9139665299274 444.93732770363334 749.9139665299274 412.26145991874
s 7.995159138856883 -9.385621597788516 17.3807807366454 -9.385621597788516
S 784.6755280032182 379.58559213384666 784.6755280032182 412.26145991874
z" fill="none" stroke="none"></path>
<circle cx="0" cy="0" r="8.552258533916387" fill="#91bcc6" opacity="0.9">
  <animateMotion begin="-6.08386128331875s" dur="10s" repeatCount="indefinite">
    <mpath xlink:href="#path44"></mpath>
  </animateMotion>
</circle><path id="path45" d="M 1131.2820741571556 139.85753892799144
c 0 29.115117152566324 -7.123911643713035 8.362852799141391 -15.486764442854426 8.362852799141391
S 1100.308545271447 168.97265608055775 1100.308545271447 139.85753892799144
s 7.123911643713035 -8.362852799141391 15.486764442854426 -8.362852799141391
S 1131.2820741571556 110.74242177542511 1131.2820741571556 139.85753892799144
z" fill="none" stroke="none"></path>
<circle cx="0" cy="0" r="8.980996967048345" fill="#194645" opacity="0.9">
  <animateMotion begin="-9.585279302621766s" dur="10s" repeatCount="indefinite">
    <mpath xlink:href="#path45"></mpath>
  </animateMotion>
</circle><path id="path46" d="M 802.1183228465516 171.41769092232607
c 0 29.669732553883428 -7.259615412120412 8.522157222923964 -15.781772635044376 8.522157222923964
S 770.5547775764628 201.0874234762095 770.5547775764628 171.41769092232607
s 7.259615412120412 -8.522157222923964 15.781772635044376 -8.522157222923964
S 802.1183228465516 141.74795836844265 802.1183228465516 171.41769092232607
z" fill="none" stroke="none"></path>
<circle cx="0" cy="0" r="7.344212713854821" fill="#07abcc" opacity="0.9">
  <animateMotion begin="-2.89172245783768s" dur="10s" repeatCount="indefinite">
    <mpath xlink:href="#path46"></mpath>
  </animateMotion>
</circle><path id="path47" d="M 783.4926893488729 29.59188992368941
c 0 22.865738358690816 -5.594808321807326 6.56781846473034 -12.162626786537666 6.56781846473034
S 759.1674357757976 52.45762828238023 759.1674357757976 29.59188992368941
s 5.594808321807326 -6.56781846473034 12.162626786537666 -6.56781846473034
S 783.4926893488729 6.726151564998595 783.4926893488729 29.59188992368941
z" fill="none" stroke="none"></path>
<circle cx="0" cy="0" r="7.577623784265202" fill="#e2bb8b" opacity="0.9">
  <animateMotion begin="-7.292438909337145s" dur="10s" repeatCount="indefinite">
    <mpath xlink:href="#path47"></mpath>
  </animateMotion>
</circle><path id="path48" d="M 700.2187581808928 542.5401165883474
c 0 29.501233088565527 -7.218386819542629 8.473758440332652 -15.69214525987528 8.473758440332652
S 668.8344676611423 572.0413496769129 668.8344676611423 542.5401165883474
s 7.218386819542629 -8.473758440332652 15.69214525987528 -8.473758440332652
S 700.2187581808928 513.0388834997818 700.2187581808928 542.5401165883474
z" fill="none" stroke="none"></path>
<circle cx="0" cy="0" r="6.628317878334919" fill="#e1e7e7" opacity="0.9">
  <animateMotion begin="-3.932420036988702s" dur="10s" repeatCount="indefinite">
    <mpath xlink:href="#path48"></mpath>
  </animateMotion>
</circle><path id="path49" d="M 112.07899249715861 183.66232605795747
c 0 33.38587013974738 -8.16888311929989 9.589558444395525 -17.758441563695413 9.589558444395525
S 76.56210936976778 217.04819619770484 76.56210936976778 183.66232605795747
s 8.16888311929989 -9.589558444395525 17.758441563695413 -9.589558444395525
S 112.07899249715861 150.2764559182101 112.07899249715861 183.66232605795747
z" fill="none" stroke="none"></path>
<circle cx="0" cy="0" r="7.528574093989557" fill="#0a69aa" opacity="0.9">
  <animateMotion begin="-4.649622657333281s" dur="10s" repeatCount="indefinite">
    <mpath xlink:href="#path49"></mpath>
  </animateMotion>
</circle><path id="path50" d="M 1360.7372554628075 580.2863249324937
c 0 30.696366102392922 -7.510812982500395 8.817041327283073 -16.32785430978347 8.817041327283073
S 1328.0815468432404 610.9826910348867 1328.0815468432404 580.2863249324937
s 7.510812982500395 -8.817041327283073 16.32785430978347 -8.817041327283073
S 1360.7372554628075 549.5899588301007 1360.7372554628075 580.2863249324937
z" fill="none" stroke="none"></path>
<circle cx="0" cy="0" r="8.762494134853771" fill="#e4934b" opacity="0.9">
  <animateMotion begin="-3.854978605632635s" dur="10s" repeatCount="indefinite">
    <mpath xlink:href="#path50"></mpath>
  </animateMotion>
</circle><path id="path51" d="M 611.0198882807001 298.6547553305578
c 0 33.25121842581889 -8.135936423338663 9.550881888267128 -17.68681831160579 9.550881888267128
S 575.6462516574886 331.9059737563767 575.6462516574886 298.6547553305578
s 8.135936423338663 -9.550881888267128 17.68681831160579 -9.550881888267128
S 611.0198882807001 265.4035369047389 611.0198882807001 298.6547553305578
z" fill="none" stroke="none"></path>
<circle cx="0" cy="0" r="7.963716900609008" fill="#e1e7e7" opacity="0.9">
  <animateMotion begin="-2.0225872429392333s" dur="10s" repeatCount="indefinite">
    <mpath xlink:href="#path51"></mpath>
  </animateMotion>
</circle><path id="path52" d="M 193.36585828856178 368.8435590677801
c 0 33.14465496349556 -8.109862384685083 9.520273234195534 -17.63013561888062 9.520273234195534
S 158.10558705080055 401.9882140312757 158.10558705080055 368.8435590677801
s 8.109862384685083 -9.520273234195534 17.63013561888062 -9.520273234195534
S 193.36585828856178 335.69890410428457 193.36585828856178 368.8435590677801
z" fill="none" stroke="none"></path>
<circle cx="0" cy="0" r="7.43696796432116" fill="#91bcc6" opacity="0.9">
  <animateMotion begin="-9.616336219087767s" dur="10s" repeatCount="indefinite">
    <mpath xlink:href="#path52"></mpath>
  </animateMotion>
</circle><path id="path53" d="M 928.112628295133 206.46022530200054
c 0 26.954066247928736 -6.595143869174051 7.742125411639105 -14.337269280813157 7.742125411639105
S 899.4380897335067 233.41429154992926 899.4380897335067 206.46022530200054
s 6.595143869174051 -7.742125411639105 14.337269280813157 -7.742125411639105
S 928.112628295133 179.50615905407182 928.112628295133 206.46022530200054
z" fill="none" stroke="none"></path>
<circle cx="0" cy="0" r="6.095319466070668" fill="#df1317" opacity="0.9">
  <animateMotion begin="-3.4638460014852845s" dur="10s" repeatCount="indefinite">
    <mpath xlink:href="#path53"></mpath>
  </animateMotion>
</circle><path id="path54" d="M 922.364506218974 418.77157815841315
c 0 35.25726306245344 -8.626777132302436 10.127086198789817 -18.753863331092255 10.127086198789817
S 884.8567795567895 454.0288412208666 884.8567795567895 418.77157815841315
s 8.626777132302436 -10.127086198789817 18.753863331092255 -10.127086198789817
S 922.364506218974 383.5143150959597 922.364506218974 418.77157815841315
z" fill="none" stroke="none"></path>
<circle cx="0" cy="0" r="8.198017708826926" fill="#07abcc" opacity="0.9">
  <animateMotion begin="-6.072358112966871s" dur="10s" repeatCount="indefinite">
    <mpath xlink:href="#path54"></mpath>
  </animateMotion>
</circle><path id="path55" d="M 993.36250819703 59.75436409119312
c 0 34.750062684183426 -8.502674912087432 9.981400983754813 -18.484075895842246 9.981400983754813
S 956.3943564053455 94.50442677537654 956.3943564053455 59.75436409119312
s 8.502674912087432 -9.981400983754813 18.484075895842246 -9.981400983754813
S 993.36250819703 25.00430140700969 993.36250819703 59.75436409119312
z" fill="none" stroke="none"></path>
<circle cx="0" cy="0" r="4.949285195810615" fill="#0a69aa" opacity="0.9">
  <animateMotion begin="-7.335819127527627s" dur="10s" repeatCount="indefinite">
    <mpath xlink:href="#path55"></mpath>
  </animateMotion>
</circle><path id="path56" d="M 239.33027594980905 33.55411579296828
c 0 22.380020932730144 -5.475962568646737 6.428303884933126 -11.904266453579863 6.428303884933126
S 215.52174304264935 55.93413672569842 215.52174304264935 33.55411579296828
s 5.475962568646737 -6.428303884933126 11.904266453579863 -6.428303884933126
S 239.33027594980905 11.174094860238139 239.33027594980905 33.55411579296828
z" fill="none" stroke="none"></path>
<circle cx="0" cy="0" r="6.970561010761464" fill="#e2bb8b" opacity="0.9">
  <animateMotion begin="-1.0432126753227489s" dur="10s" repeatCount="indefinite">
    <mpath xlink:href="#path56"></mpath>
  </animateMotion>
</circle></g>
</svg>