<svg xmlns="http://www.w3.org/2000/svg" xmlns:xlink="http://www.w3.org/1999/xlink" xmlns:lucid="lucid" width="1241" height="753"><g transform="translate(115 -78)" lucid:page-tab-id="0_0"><path d="M500 500c0 55.23-44.77 100-100 100s-100-44.77-100-100 44.77-100 100-100 100 44.77 100 100z" stroke="#5e5e5e" stroke-width="3" fill="#fff3d9"/><use xlink:href="#a" transform="matrix(1,0,0,1,305,405) translate(49.24074074074075 102.07638888888889)"/><path d="M800 700c0 55.23-44.77 100-100 100s-100-44.77-100-100 44.77-100 100-100 100 44.77 100 100z" stroke="#5e5e5e" stroke-width="3" fill="#fff3d9"/><use xlink:href="#b" transform="matrix(1,0,0,1,605,605) translate(20.722222222222243 102.07638888888889)"/><path d="M1100 500c0 55.23-44.77 100-100 100s-100-44.77-100-100 44.77-100 100-100 100 44.77 100 100z" stroke="#5e5e5e" stroke-width="3" fill="#fff3d9"/><use xlink:href="#c" transform="matrix(1,0,0,1,905,405) translate(12.901234567901241 102.07638888888889)"/><path d="M120 500c0 55.23-44.77 100-100 100S-80 555.23-80 500s44.77-100 100-100 100 44.77 100 100z" stroke="#5e5e5e" stroke-width="3" fill="#e3fae3"/><use xlink:href="#d" transform="matrix(1,0,0,1,-75,405) translate(49.32716049382717 102.07638888888889)"/><path d="M122.5 500H280" stroke="#5e5e5e" stroke-width="2" fill="none"/><path d="M122.53 501h-1.06l.03-1v-1h1.03z" stroke="#5e5e5e" stroke-width=".05" fill="#5e5e5e"/><path d="M295.26 500L281 504.63v-9.26z" stroke="#5e5e5e" stroke-width="2" fill="#5e5e5e"/><path d="M597.5 699.98l-35.27-.67-24.02-1.47-18.32-1.92-14.7-2.15-12.14-2.3-10.23-2.4-8.74-2.44-7.57-2.45-6.64-2.45-5.84-2.46-5.2-2.44-4.65-2.43-4.2-2.42-3.78-2.4-3.45-2.4-3.15-2.38-2.9-2.4-2.64-2.38-2.45-2.4-2.25-2.42-2.1-2.43-1.95-2.45-1.8-2.5-1.7-2.52-1.55-2.58-1.45-2.63-1.34-2.7-1.23-2.78-1.13-2.87-1.04-2.97-.93-3.08-.82-3.2-.54-2.6" stroke="#5e5e5e" stroke-width="2" stroke-linejoin="round" fill="none"/><path d="M598.52 699l-.02 1v1l-1.05-.02.04-2z" stroke="#5e5e5e" stroke-width=".05" fill="#5e5e5e"/><path d="M400.3 604.72l5.98 13.76-9.23.88z" stroke="#5e5e5e" stroke-width="2" fill="#5e5e5e"/><path d="M999.98 602.5l-.07 3.35-.25 4.07-.4 3.83-.53 3.62-.66 3.45-.77 3.28-.88 3.14-1 3.02-1.07 2.9-1.18 2.83-1.3 2.73-1.38 2.66-1.52 2.6-1.62 2.55-1.74 2.5-1.88 2.48-2.02 2.44-2.18 2.42-2.35 2.4-2.56 2.4-2.77 2.38-3 2.38-3.3 2.4-3.62 2.4-3.98 2.4-4.4 2.42-4.92 2.44-5.5 2.45-6.22 2.46-7.08 2.46-8.13 2.44-9.44 2.42-11.13 2.36-13.32 2.24-16.34 2.05-20.8 1.74-28.6 1.16-2.1.02" stroke="#5e5e5e" stroke-width="2" stroke-linejoin="round" fill="none"/><path d="M1000 601.5h1l-.02 1.05-2-.04.02-1.02z" stroke="#5e5e5e" stroke-width=".05" fill="#5e5e5e"/><path d="M804.74 699.97l14.22-4.78.1 9.26z" stroke="#5e5e5e" stroke-width="2" fill="#5e5e5e"/><path d="M875.78 500H520M876.78 500" stroke="#5e5e5e" stroke-width="2" fill="none"/><path d="M504.74 500l14.26-4.63v9.26z" stroke="#5e5e5e" stroke-width="2" fill="#5e5e5e"/><path d="M502.5 500H880" stroke="#5e5e5e" stroke-width="2" fill="none"/><path d="M502.53 501h-1.05l.02-1v-1h1.03z" stroke="#5e5e5e" stroke-width=".05" fill="#5e5e5e"/><path d="M895.26 500L881 504.63v-9.26z" stroke="#5e5e5e" stroke-width="2" fill="#5e5e5e"/><path d="M920 220c0 55.23-44.77 100-100 100s-100-44.77-100-100 44.77-100 100-100 100 44.77 100 100z" stroke="#5e5e5e" stroke-width="3" fill="#fff0f0"/><use xlink:href="#e" transform="matrix(1,0,0,1,725,125) translate(24.308641975308646 102.07638888888889)"/><path d="M1000 397.5l-.73-48.73L998 327.9l-1.56-14.9-1.7-11.63-1.8-9.44-1.85-7.87-1.87-6.7-1.88-5.78-1.87-5.05-1.87-4.45-1.85-3.96-1.86-3.55-1.85-3.2-1.84-2.9-1.83-2.65-1.84-2.42-1.84-2.23-1.86-2.05-1.86-1.9-1.88-1.76-1.9-1.64-1.93-1.53-1.95-1.43-2-1.33-2.04-1.24-2.1-1.15-2.15-1.07-2.23-1-2.3-.9-2.4-.84-2.5-.75-1.77-.47" stroke="#5e5e5e" stroke-width="2" stroke-linejoin="round" fill="none"/><path d="M1001 398.52l-1-.02h-1v-1l2-.04z" stroke="#5e5e5e" stroke-width=".05" fill="#5e5e5e"/><path d="M924.7 220.37l14.72-2.95-1.07 9.2z" stroke="#5e5e5e" stroke-width="2" fill="#5e5e5e"/><defs><path fill="#333" d="M30-248c87 1 191-15 191 75 0 78-77 80-158 76V0H30v-248zm33 125c57 0 124 11 124-50 0-59-68-47-124-48v98" id="f"/><path fill="#333" d="M114-163C36-179 61-72 57 0H25l-1-190h30c1 12-1 29 2 39 6-27 23-49 58-41v29" id="g"/><path fill="#333" d="M100-194c62-1 85 37 85 99 1 63-27 99-86 99S16-35 15-95c0-66 28-99 85-99zM99-20c44 1 53-31 53-75 0-43-8-75-51-75s-53 32-53 75 10 74 51 75" id="h"/><path fill="#333" d="M117-194c89-4 53 116 60 194h-32v-121c0-31-8-49-39-48C34-167 62-67 57 0H25l-1-190h30c1 10-1 24 2 32 11-22 29-35 61-36" id="i"/><path fill="#333" d="M59-47c-2 24 18 29 38 22v24C64 9 27 4 27-40v-127H5v-23h24l9-43h21v43h35v23H59v120" id="j"/><g id="a"><use transform="matrix(0.08641975308641973,0,0,0.08641975308641973,0,0)" xlink:href="#f"/><use transform="matrix(0.08641975308641973,0,0,0.08641975308641973,20.740740740740737,0)" xlink:href="#g"/><use transform="matrix(0.08641975308641973,0,0,0.08641975308641973,31.024691358024686,0)" xlink:href="#h"/><use transform="matrix(0.08641975308641973,0,0,0.08641975308641973,48.30864197530863,0)" xlink:href="#i"/><use transform="matrix(0.08641975308641973,0,0,0.08641975308641973,65.59259259259258,0)" xlink:href="#j"/><use transform="matrix(0.08641975308641973,0,0,0.08641975308641973,74.23456790123456,0)" xlink:href="#h"/></g><path fill="#333" d="M160-131c35 5 61 23 61 61C221 17 115-2 30 0v-248c76 3 177-17 177 60 0 33-19 50-47 57zm-97-11c50-1 110 9 110-42 0-47-63-36-110-37v79zm0 115c55-2 124 14 124-45 0-56-70-42-124-44v89" id="k"/><path fill="#333" d="M24 0v-261h32V0H24" id="l"/><path fill="#333" d="M145-31C134-9 116 4 85 4 32 4 16-35 15-94c0-59 17-99 70-100 32-1 48 14 60 33 0-11-1-24 2-32h30l-1 268h-32zM93-21c41 0 51-33 51-76s-8-73-50-73c-40 0-46 35-46 75s5 74 45 74" id="m"/><path fill="#333" d="M84 4C-5 8 30-112 23-190h32v120c0 31 7 50 39 49 72-2 45-101 50-169h31l1 190h-30c-1-10 1-25-2-33-11 22-28 36-60 37" id="n"/><path fill="#333" d="M100-194c63 0 86 42 84 106H49c0 40 14 67 53 68 26 1 43-12 49-29l28 8c-11 28-37 45-77 45C44 4 14-33 15-96c1-61 26-98 85-98zm52 81c6-60-76-77-97-28-3 7-6 17-6 28h103" id="o"/><path fill="#333" d="M141-36C126-15 110 5 73 4 37 3 15-17 15-53c-1-64 63-63 125-63 3-35-9-54-41-54-24 1-41 7-42 31l-33-3c5-37 33-52 76-52 45 0 72 20 72 64v82c-1 20 7 32 28 27v20c-31 9-61-2-59-35zM48-53c0 20 12 33 32 33 41-3 63-29 60-74-43 2-92-5-92 41" id="p"/><path fill="#333" d="M85-194c31 0 48 13 60 33l-1-100h32l1 261h-30c-2-10 0-23-3-31C134-8 116 4 85 4 32 4 16-35 15-94c0-66 23-100 70-100zm9 24c-40 0-46 34-46 75 0 40 6 74 45 74 42 0 51-32 51-76 0-42-9-74-50-73" id="q"/><g id="b"><use transform="matrix(0.08641975308641973,0,0,0.08641975308641973,0,0)" xlink:href="#k"/><use transform="matrix(0.08641975308641973,0,0,0.08641975308641973,20.740740740740737,0)" xlink:href="#l"/><use transform="matrix(0.08641975308641973,0,0,0.08641975308641973,27.567901234567895,0)" xlink:href="#h"/><use transform="matrix(0.08641975308641973,0,0,0.08641975308641973,44.85185185185184,0)" xlink:href="#m"/><use transform="matrix(0.08641975308641973,0,0,0.08641975308641973,62.13580246913578,0)" xlink:href="#n"/><use transform="matrix(0.08641975308641973,0,0,0.08641975308641973,79.41975308641973,0)" xlink:href="#o"/><use transform="matrix(0.08641975308641973,0,0,0.08641975308641973,96.70370370370368,0)" xlink:href="#p"/><use transform="matrix(0.08641975308641973,0,0,0.08641975308641973,113.98765432098763,0)" xlink:href="#q"/><use transform="matrix(0.08641975308641973,0,0,0.08641975308641973,131.27160493827157,0)" xlink:href="#h"/></g><path fill="#333" d="M30 0v-248h187v28H63v79h144v27H63v87h162V0H30" id="r"/><path fill="#333" d="M141 0L90-78 38 0H4l68-98-65-92h35l48 74 47-74h35l-64 92 68 98h-35" id="s"/><path fill="#333" d="M96-169c-40 0-48 33-48 73s9 75 48 75c24 0 41-14 43-38l32 2c-6 37-31 61-74 61-59 0-76-41-82-99-10-93 101-131 147-64 4 7 5 14 7 22l-32 3c-4-21-16-35-41-35" id="t"/><g id="c"><use transform="matrix(0.08641975308641973,0,0,0.08641975308641973,0,0)" xlink:href="#r"/><use transform="matrix(0.08641975308641973,0,0,0.08641975308641973,20.740740740740737,0)" xlink:href="#s"/><use transform="matrix(0.08641975308641973,0,0,0.08641975308641973,36.29629629629629,0)" xlink:href="#o"/><use transform="matrix(0.08641975308641973,0,0,0.08641975308641973,53.58024691358023,0)" xlink:href="#t"/><use transform="matrix(0.08641975308641973,0,0,0.08641975308641973,69.1358024691358,0)" xlink:href="#n"/><use transform="matrix(0.08641975308641973,0,0,0.08641975308641973,86.41975308641975,0)" xlink:href="#j"/><use transform="matrix(0.08641975308641973,0,0,0.08641975308641973,95.06172839506172,0)" xlink:href="#p"/><use transform="matrix(0.08641975308641973,0,0,0.08641975308641973,112.34567901234567,0)" xlink:href="#i"/><use transform="matrix(0.08641975308641973,0,0,0.08641975308641973,129.62962962962962,0)" xlink:href="#q"/><use transform="matrix(0.08641975308641973,0,0,0.08641975308641973,146.91358024691357,0)" xlink:href="#h"/></g><path fill="#333" d="M212-179c-10-28-35-45-73-45-59 0-87 40-87 99 0 60 29 101 89 101 43 0 62-24 78-52l27 14C228-24 195 4 139 4 59 4 22-46 18-125c-6-104 99-153 187-111 19 9 31 26 39 46" id="u"/><path fill="#333" d="M24-231v-30h32v30H24zM24 0v-190h32V0H24" id="v"/><g id="d"><use transform="matrix(0.08641975308641973,0,0,0.08641975308641973,0,0)" xlink:href="#u"/><use transform="matrix(0.08641975308641973,0,0,0.08641975308641973,22.38271604938271,0)" xlink:href="#g"/><use transform="matrix(0.08641975308641973,0,0,0.08641975308641973,32.66666666666666,0)" xlink:href="#v"/><use transform="matrix(0.08641975308641973,0,0,0.08641975308641973,39.493827160493815,0)" xlink:href="#p"/><use transform="matrix(0.08641975308641973,0,0,0.08641975308641973,56.77777777777776,0)" xlink:href="#q"/><use transform="matrix(0.08641975308641973,0,0,0.08641975308641973,74.0617283950617,0)" xlink:href="#h"/></g><path fill="#333" d="M63-220v92h138v28H63V0H30v-248h175v28H63" id="w"/><path fill="#333" d="M9 0v-24l116-142H16v-24h144v24L44-24h123V0H9" id="x"/><g id="e"><use transform="matrix(0.08641975308641973,0,0,0.08641975308641973,0,0)" xlink:href="#w"/><use transform="matrix(0.08641975308641973,0,0,0.08641975308641973,18.92592592592592,0)" xlink:href="#v"/><use transform="matrix(0.08641975308641973,0,0,0.08641975308641973,25.753086419753075,0)" xlink:href="#i"/><use transform="matrix(0.08641975308641973,0,0,0.08641975308641973,43.037037037037024,0)" xlink:href="#p"/><use transform="matrix(0.08641975308641973,0,0,0.08641975308641973,60.32098765432097,0)" xlink:href="#l"/><use transform="matrix(0.08641975308641973,0,0,0.08641975308641973,67.14814814814814,0)" xlink:href="#v"/><use transform="matrix(0.08641975308641973,0,0,0.08641975308641973,73.9753086419753,0)" xlink:href="#x"/><use transform="matrix(0.08641975308641973,0,0,0.08641975308641973,89.53086419753086,0)" xlink:href="#p"/><use transform="matrix(0.08641975308641973,0,0,0.08641975308641973,106.81481481481481,0)" xlink:href="#q"/><use transform="matrix(0.08641975308641973,0,0,0.08641975308641973,124.09876543209876,0)" xlink:href="#h"/></g></defs></g></svg>