<svg width="467" height="103" viewBox="0 0 467 103" fill="none" xmlns="http://www.w3.org/2000/svg">
<g clip-path="url(#clip0_201_2)">
<g filter="url(#filter0_d_201_2)">
<path d="M466.05 95.7292H0V102.027H466.05V95.7292Z" fill="#54BA7C"/>
</g>
<g filter="url(#filter1_d_201_2)">
<path fill-rule="evenodd" clip-rule="evenodd" d="M51.9691 29.8132C52.0968 29.9447 51.8406 30.0693 51.8406 30.0693C51.8406 30.0693 50.9506 30.3255 50.6944 30.7063C50.4383 30.9632 50.0605 31.8495 50.0605 31.8495C50.5698 31.7248 51.2067 31.5933 51.8406 31.3364C51.9691 31.3364 52.0968 31.4687 52.2252 31.5933C52.3499 31.5933 50.6944 32.2303 50.3167 32.4796C50.0605 32.7433 48.7896 33.7611 48.4088 33.7611C48.028 33.7611 47.1342 33.8857 47.1342 33.8857C47.2626 34.1419 47.3903 34.3912 47.6396 34.772C47.6396 34.772 46.7533 35.2851 46.7533 35.4097C46.6287 35.5412 45.991 36.3036 45.991 36.3036C45.991 36.3036 48.2804 36.5521 49.0427 35.2851C48.2804 36.5521 46.5002 37.8268 42.8092 37.8268C38.9928 37.8268 35.9426 36.3036 33.9063 35.5412C31.7415 34.655 28.9444 33.6296 26.6543 33.6296C24.4933 33.6296 21.9485 34.2666 20.2961 35.7974C17.3697 34.655 13.2979 35.2851 11.3893 37.0652C9.6092 38.8453 7.82907 41.0131 7.57292 42.5303C7.19211 44.1926 6.30205 48.1329 5.03041 49.9206C3.24724 52.8356 1.214 53.6048 0.57704 54.8719C-0.0599166 56.1465 -0.0599167 58.8198 0.0647383 58.8198C0.320889 58.9444 1.21476 58.8198 1.72326 58.5629C2.74178 58.1821 5.53664 55.2595 6.5544 53.8602C7.57216 52.454 11.0116 46.3459 11.517 44.1918C12.0263 42.0309 12.5348 39.8631 14.0626 38.7199C15.7181 37.5768 17.7475 38.083 17.7475 38.2145C17.7475 38.2145 15.8427 39.7385 15.7181 43.9357C15.5866 48.1321 18.1321 47.6267 16.8605 50.2938C15.5866 52.5855 11.7739 51.0555 10.5031 52.454C9.48455 53.604 10.5031 57.669 10.5031 58.4306C10.5031 59.1998 10.1154 62.7593 9.86612 63.6532C9.73462 64.4148 9.86612 64.9203 9.73462 65.4333C9.60996 65.821 10.5038 65.9388 10.5038 65.9388C10.5038 65.9388 9.73462 66.9497 9.35381 66.7073C8.97301 66.5758 8.7199 66.5758 8.46679 66.7073C8.21064 66.7073 7.70518 66.9497 7.19287 66.7073L5.15583 71.0299C5.41274 71.1614 5.79355 71.2792 6.17435 71.1614C6.68665 71.0299 9.22916 69.8799 9.48455 69.6245C9.86536 69.4998 12.0271 68.232 12.4079 67.4704C12.664 66.708 13.1695 64.2848 13.1695 63.5293C13.2979 62.7601 13.4256 60.343 13.4256 59.7129C13.4256 59.0759 13.2979 57.9328 13.4256 57.4205C13.6825 57.0397 14.0633 56.5266 14.5726 56.2704C15.2058 56.1458 15.9681 56.1458 16.0958 56.1458C16.3527 56.1458 18.5167 56.4019 18.8945 56.4019C19.4037 56.4019 21.44 56.0211 21.9493 55.7581C22.5862 55.6403 22.964 55.7581 23.0955 56.0211C23.3486 56.2704 22.8394 56.6512 22.8394 56.7835C22.7147 56.9074 21.6962 58.1821 21.44 58.6875C21.1839 59.3252 20.2968 60.4677 20.5538 60.9807C20.8061 61.4862 20.8061 61.6177 21.5685 62.0061C22.3339 62.2478 25.2564 63.7862 26.9112 65.3102C28.6913 66.9512 30.3468 68.9875 30.6037 70.0129C30.9807 71.1629 31.6176 71.2807 31.9992 71.2807C32.3838 71.4122 33.1454 71.5369 33.1454 72.0492C33.1454 72.5554 33.0139 73.1924 33.0139 73.1924L37.7235 74.9732C37.7235 74.9732 37.7235 73.317 37.5988 72.6869C37.4704 71.9245 36.7049 71.1629 36.0672 70.3937C35.4341 69.5006 28.8236 63.0178 28.182 62.5055C27.5489 62.1239 27.0358 61.6184 26.9112 60.6007C26.7797 59.5753 28.0543 58.8205 28.8236 57.9335C29.329 57.2966 30.7283 54.3672 30.9807 53.9795C31.2338 53.6056 32.1269 52.587 32.6324 52.587C33.2701 52.587 34.6694 53.4809 36.4518 54.111C37.2142 54.3672 42.6815 55.7597 43.4508 56.0226C44.2124 56.1473 45.861 56.0226 46.3741 56.5281C46.8795 56.9089 46.3741 57.9343 46.2456 58.5644C46.1171 59.3268 44.7216 62.1247 44.7216 62.1247C44.7216 62.1247 44.9747 63.1363 44.9747 63.9124C44.9747 64.7987 44.5939 67.9781 44.2124 68.989C43.9562 70.1391 42.1761 73.0685 41.7915 73.5747C41.5391 73.9555 41.1583 74.2124 41.1583 74.8493C41.1583 75.4795 42.3007 75.6186 42.6815 76.1172C43.1946 76.5048 42.81 77.2596 42.6815 78.0288L47.7719 80.1897C47.7719 79.8089 48.0288 79.1712 47.7719 78.9151C47.6404 78.5411 47.0103 77.7727 46.6295 77.2596C46.3733 76.8788 45.4832 75.4795 45.2301 75.2233C44.974 74.8493 44.974 74.0877 45.2301 73.4424C45.3548 72.8131 47.0103 68.4897 47.1349 67.9781C47.3911 67.348 49.8089 62.2501 50.0613 61.62C50.3174 60.8583 52.3507 57.1673 52.6068 56.5296C52.8599 55.7612 54.5154 55.1303 55.0247 55.1303C55.6578 55.1303 58.8411 56.2735 59.3465 56.5296C59.7274 56.6543 62.6575 57.9358 63.163 58.1851C63.8007 58.4344 63.4191 58.9475 63.0383 59.079C62.6575 59.3283 57.9472 62.5077 57.5664 62.6392C57.1856 62.7639 56.8048 63.1379 56.5479 63.1379C56.1671 63.1379 55.6578 63.5331 55.6578 63.6578C55.6578 63.9139 55.5332 64.4194 54.8962 64.4194C54.3869 64.4194 53.3692 63.6578 52.7353 62.8954C51.8414 63.4009 51.2075 63.7893 50.8236 64.544C50.1897 65.1741 49.9336 65.694 49.552 66.5803C49.8089 66.8365 50.3174 66.9543 50.6952 66.9543H54.767C55.1486 66.9543 55.6571 66.8365 56.0417 66.7118C56.4225 66.4557 66.4701 59.8413 66.4701 59.8413C66.4701 59.8413 68.1286 58.5667 68.1286 57.4243C68.1286 56.5304 67.3602 56.2742 67.1109 55.8934C66.7263 55.6441 64.4369 54.1133 64.0561 53.864C63.543 53.4832 61.7629 52.4578 61.2574 52.2017C60.8728 51.9524 59.4704 51.4469 59.4704 51.4469C59.8581 50.2969 60.1112 49.4099 60.2358 49.1537C60.3673 48.8976 60.3673 46.6044 60.489 46.2243C60.489 45.8503 61.1297 44.1949 61.3821 43.9387C61.6382 43.6826 62.2759 41.6463 62.4006 41.2647C62.5321 41.0154 63.543 38.086 64.0561 38.086C64.5615 37.9614 65.0738 38.4668 65.5801 38.4668C66.0924 38.5915 67.9971 38.3422 69.0157 38.4668C69.9088 38.5915 71.052 39.7415 71.3081 39.8661C71.6889 39.9976 72.5759 40.3716 72.8321 40.3716C72.9605 40.3716 74.2314 39.4846 74.2314 39.2353C74.2314 38.9723 73.3375 38.4668 73.2129 38.4668C73.0882 38.3422 72.1982 37.8291 72.1982 37.8291C72.1982 37.9614 72.5759 37.5798 73.2129 37.5798C73.7221 37.5798 74.2314 38.086 74.3561 38.2175C74.6122 38.3422 75.2492 38.723 75.3738 38.4668C75.5008 38.3384 76.01 37.7006 76.01 37.3206C76.01 36.8083 75.5008 36.1782 75.2477 35.9213C74.9953 35.6651 72.0682 32.8741 71.812 32.7426C71.4312 32.6179 69.9073 31.211 69.9073 30.8378C69.7758 30.574 69.0141 29.9439 68.8895 29.8124C68.7572 29.6878 64.9454 27.0214 64.4361 26.6261C63.9269 26.2522 63.4176 25.6152 63.4176 24.9782C63.4176 24.3481 63.1614 22.6926 63.1614 22.6926C63.1614 22.6926 62.2752 22.568 61.8906 22.942C61.5128 23.2049 60.6197 25.2412 60.1104 25.2412C58.7073 24.9782 56.9272 25.3659 56.9272 25.6152C57.0587 25.996 58.3295 25.7398 58.3295 25.7398C58.3295 25.8713 57.8203 26.5015 57.4357 26.5015C57.1833 26.5015 56.4209 26.7576 56.2933 26.8823C56.0401 26.8823 55.5309 27.2775 55.5309 27.2775C55.9086 27.2775 56.2933 27.2775 56.8025 27.3946C56.8025 27.3946 56.0401 27.9076 55.6555 27.9076C55.2785 27.9076 54.0039 28.2884 53.6231 28.4131C53.3669 28.6624 52.3484 29.4316 52.3484 29.4316H51.2052L51.3299 29.6878H51.9676V29.8132H51.9691Z" fill="white"/>
</g>
<g filter="url(#filter2_d_201_2)">
<path d="M100.768 24.6697L102.98 24.4485L125.764 24.6697L126.575 34.1817L116.326 35.7301L118.243 78.866L107.109 78.7922L107.404 37.2049L101.579 36.6887L100.768 24.6697ZM150.318 50.1825L149.286 24.6697H149.876L156.144 24.8171L157.987 78.7922L149.729 79.1609L149.36 57.7036L141.396 58.146L140.88 78.866H132.179L129.156 78.7185V69.2802L128.566 52.2471L129.304 24.6697L141.544 24.8909L141.249 50.4037L150.318 50.1825ZM169.564 33.518L169.785 39.3432V46.9381H172.439L175.02 46.7169L176.716 45.0947V44.3573L177.011 39.3432L176.421 34.8453V34.6978L175.61 31.7484L173.619 30.8635H169.785L169.564 33.518ZM169.121 24.4485L178.781 24.5959L183.352 25.1121L187.113 27.2504L190.062 32.1171L189.104 46.3482L187.924 48.5603L183.574 49.9613L188.514 53.6481L189.841 57.2612V63.1601L189.178 78.7922L187.26 79.2347L179.666 78.866L179.297 64.4874L178.781 56.8925L177.011 54.9754L173.619 53.8693V59.3258V73.0408L173.84 78.7922L166.688 78.7185L163.296 78.9397L162.116 78.7185V68.1005V60.3581L162.559 50.33L162.264 33.0756L162.116 24.5222L169.121 24.4485ZM194.56 78.571L194.413 52.9845L194.708 50.2562L194.56 47.528L194.929 31.2322L195.593 24.8909L219.557 25.3333L219.926 39.7119H204.22L203.925 48.929L215.944 48.7078V49.5189L216.313 55.7865L205.105 56.0077L205.473 66.9207L220.442 67.658V79.0135L194.56 78.571ZM231.06 54.4592L238.434 54.0905L238.212 43.8412L236.369 36.6887L231.797 36.32L231.06 54.4592ZM233.051 24.301H237.77L247.429 24.9646L249.42 51.731L250.158 78.4236L247.946 78.571L239.613 78.9397H238.729L238.065 62.349L231.134 61.9066L229.29 78.866L222.064 79.0872L224.424 51.5097L226.562 35.7301L228.11 24.6697L233.051 24.301ZM267.928 35.4352L260.186 34.6241L259.375 68.5429L266.453 68.6903L267.486 67.5843L269.255 49.9613V41.4816L267.928 35.4352ZM254.139 24.8909H256.425L262.324 24.7434C265.569 24.6697 268.666 24.5959 270.067 24.8171L274.417 26.0707C275.302 26.3656 276.187 26.7343 277.071 27.103L281.127 33.5918C281.422 38.2372 281.643 42.5876 281.717 46.7169C281.717 53.7956 281.717 61.5379 281.127 64.7823C280.758 67.0681 280.242 68.9853 280.168 70.3863C279.947 71.1974 279.873 72.0085 279.873 72.6721L275.965 78.4973L267.117 79.0135H253.771L254.139 24.8909ZM285.404 24.6697L292.114 24.5959L292.409 45.7583H300.225L299.045 24.301L311.949 24.5959L312.834 51.5835L313.202 68.9116L313.424 78.4973L310.4 78.7922L301.331 79.0872L300.225 53.6481L292.04 51.8047L293.81 78.6448L285.625 78.2761L285.404 24.6697ZM345.941 31.6746L345.646 71.6398L344.835 76.9488L342.476 78.866L334.955 79.6771L321.166 78.3498L319.175 76.3589L317.774 73.3357L318.069 60.6531C318.069 55.1228 318.143 50.1088 318.29 45.6846C318.216 38.1634 318.29 30.6423 318.511 30.2736C318.511 29.9787 318.954 28.7252 319.765 27.5454L320.723 25.1858L332.374 24.0798L340.706 25.1121L344.835 26.7343L345.941 31.6746ZM332.595 68.9116L335.323 67.8055L336.208 40.2281L334.438 39.1958L327.36 39.0483L326.696 41.5553L326.844 51.9522V68.4691L328.023 68.6903L332.595 68.9116ZM358.771 33.518L358.993 39.3432V46.9381H361.647L364.228 46.7169L365.924 45.0947V44.3573L366.219 39.3432L365.629 34.8453V34.6978L364.818 31.7484L362.827 30.8635H358.993L358.771 33.518ZM358.329 24.4485L367.989 24.5959L372.56 25.1121L376.321 27.2504L379.27 32.1171L378.312 46.3482L377.132 48.5603L372.781 49.9613L377.722 53.6481L379.049 57.2612V63.1601L378.385 78.7922L376.468 79.2347L368.873 78.866L368.505 64.4874L367.989 56.8925L366.219 54.9754L362.827 53.8693V59.3258V73.0408L363.048 78.7922L355.896 78.7185L352.504 78.9397L351.324 78.7185V68.1005V60.3581L351.767 50.33L351.472 33.0756L351.324 24.5222L358.329 24.4485ZM405.742 25.4808L407.659 28.6514V37.6473L407.438 42.219L397.557 41.7028V38.8271V34.919L392.69 34.9928L391.879 37.0574L392.69 47.0856L400.285 47.528L407.659 48.4128L407.88 57.7774V64.4136L406.921 75.9903L400.285 79.2347L390.552 78.7922L386.128 77.0226L383.916 75.3266L382.883 69.9439L383.252 60.8005L383.621 57.8511L386.128 57.9986L391.879 58.6622V60.8743V63.3076V64.5611V66.552L398.81 67.3631L399.032 54.0905L384.358 53.2794L383.768 37.0574L383.621 26.4393L386.054 24.6697C387.75 24.5959 389.225 24.4485 390.626 24.301C392.985 24.0798 395.345 23.9323 395.861 23.9323C396.23 23.9323 397.557 24.006 398.81 24.0798L401.17 24.2273L405.742 25.4808ZM411.788 78.571L411.641 52.9845L411.935 50.2562L411.788 47.528L412.157 31.2322L412.82 24.8909L436.785 25.3333L437.153 39.7119H421.448L421.153 48.929L433.172 48.7078V49.5189L433.54 55.7865L422.332 56.0077L422.701 66.9207L437.67 67.658V79.0135L411.788 78.571ZM463.477 25.4808L465.394 28.6514V37.6473L465.173 42.219L455.293 41.7028V38.8271V34.919L450.426 34.9928L449.615 37.0574L450.426 47.0856L458.021 47.528L465.394 48.4128L465.616 57.7774V64.4136L464.657 75.9903L458.021 79.2347L448.288 78.7922L443.863 77.0226L441.651 75.3266L440.619 69.9439L440.988 60.8005L441.356 57.8511L443.863 57.9986L449.615 58.6622V60.8743V63.3076V64.5611V66.552L456.546 67.3631L456.767 54.0905L442.094 53.2794L441.504 37.0574L441.356 26.4393L443.79 24.6697C445.486 24.5959 446.96 24.4485 448.361 24.301C450.721 24.0798 453.08 23.9323 453.597 23.9323C453.965 23.9323 455.293 24.006 456.546 24.0798L458.906 24.2273L463.477 25.4808Z" fill="#54BA7C"/>
</g>
</g>
<defs>
<filter id="filter0_d_201_2" x="-4" y="95.7292" width="474.05" height="14.298" filterUnits="userSpaceOnUse" color-interpolation-filters="sRGB">
<feFlood flood-opacity="0" result="BackgroundImageFix"/>
<feColorMatrix in="SourceAlpha" type="matrix" values="0 0 0 0 0 0 0 0 0 0 0 0 0 0 0 0 0 0 127 0" result="hardAlpha"/>
<feOffset dy="4"/>
<feGaussianBlur stdDeviation="2"/>
<feComposite in2="hardAlpha" operator="out"/>
<feColorMatrix type="matrix" values="0 0 0 0 0 0 0 0 0 0 0 0 0 0 0 0 0 0 0.25 0"/>
<feBlend mode="normal" in2="BackgroundImageFix" result="effect1_dropShadow_201_2"/>
<feBlend mode="normal" in="SourceGraphic" in2="effect1_dropShadow_201_2" result="shape"/>
</filter>
<filter id="filter1_d_201_2" x="-4" y="22.6727" width="84.01" height="65.517" filterUnits="userSpaceOnUse" color-interpolation-filters="sRGB">
<feFlood flood-opacity="0" result="BackgroundImageFix"/>
<feColorMatrix in="SourceAlpha" type="matrix" values="0 0 0 0 0 0 0 0 0 0 0 0 0 0 0 0 0 0 127 0" result="hardAlpha"/>
<feOffset dy="4"/>
<feGaussianBlur stdDeviation="2"/>
<feComposite in2="hardAlpha" operator="out"/>
<feColorMatrix type="matrix" values="0 0 0 0 0 0 0 0 0 0 0 0 0 0 0 0 0 0 0.25 0"/>
<feBlend mode="normal" in2="BackgroundImageFix" result="effect1_dropShadow_201_2"/>
<feBlend mode="normal" in="SourceGraphic" in2="effect1_dropShadow_201_2" result="shape"/>
</filter>
<filter id="filter2_d_201_2" x="96.7676" y="23.9323" width="372.848" height="63.7448" filterUnits="userSpaceOnUse" color-interpolation-filters="sRGB">
<feFlood flood-opacity="0" result="BackgroundImageFix"/>
<feColorMatrix in="SourceAlpha" type="matrix" values="0 0 0 0 0 0 0 0 0 0 0 0 0 0 0 0 0 0 127 0" result="hardAlpha"/>
<feOffset dy="4"/>
<feGaussianBlur stdDeviation="2"/>
<feComposite in2="hardAlpha" operator="out"/>
<feColorMatrix type="matrix" values="0 0 0 0 0 0 0 0 0 0 0 0 0 0 0 0 0 0 0.25 0"/>
<feBlend mode="normal" in2="BackgroundImageFix" result="effect1_dropShadow_201_2"/>
<feBlend mode="normal" in="SourceGraphic" in2="effect1_dropShadow_201_2" result="shape"/>
</filter>
<clipPath id="clip0_201_2">
<rect width="466.05" height="102.027" fill="white"/>
</clipPath>
</defs>
</svg>
