<svg class="animated" id="freepik_stories-fast-car" xmlns="http://www.w3.org/2000/svg" viewBox="0 0 500 500" version="1.1" xmlns:xlink="http://www.w3.org/1999/xlink" xmlns:svgjs="http://svgjs.com/svgjs"><style>svg#freepik_stories-fast-car:not(.animated) .animable {opacity: 0;}svg#freepik_stories-fast-car.animated #freepik--Speedometer--inject-85 {animation: 6s Infinite  linear wind;animation-delay: 0s;}svg#freepik_stories-fast-car.animated #freepik--Car--inject-85 {animation: 3s Infinite  linear shake;animation-delay: 0s;}            @keyframes wind {                0% {                    transform: rotate( 0deg );                }                25% {                    transform: rotate( 1deg );                }                75% {                    transform: rotate( -1deg );                }            }                    @keyframes shake {                10%, 90% {                    transform: translate3d(-1px, 0, 0);                  }                  20%, 80% {                    transform: translate3d(2px, 0, 0);                  }                  30%, 50%, 70% {                    transform: translate3d(-4px, 0, 0);                  }                  40%, 60% {                    transform: translate3d(4px, 0, 0);                  }            }        </style><g id="freepik--Floor--inject-85" class="animable" style="transform-origin: 250.006px 341.325px;"><path d="M415.3,243.09c-92.93-52.45-242.28-51-333.57,3.26s-90,140.76,3,193.21,242.29,51,333.58-3.26S508.24,295.54,415.3,243.09Z" style="fill: rgb(224, 224, 224); transform-origin: 250.006px 341.325px;" id="el5v6a1my6vk6" class="animable"></path><path d="M415.3,243.09c-44-24.81-100.54-37.55-157.63-38.36L14.14,343.94c.68,34.86,24.23,69.47,70.56,95.62,35,19.75,78,31.85,122.88,36.38L482.9,318.55C475.21,290.77,452.67,264.18,415.3,243.09Z" style="fill: rgb(245, 245, 245); transform-origin: 248.52px 340.335px;" id="el98op9s6v62" class="animable"></path></g><g id="freepik--Shadows--inject-85" class="animable" style="transform-origin: 225.198px 327.695px;"><g id="el8yi2a0xp94c"><path d="M403.61,327l-172.13,98.4a17.44,17.44,0,0,1-5,1.92l-68.44,14.88a9.31,9.31,0,0,1-6.56-1l-79-44.35a2.33,2.33,0,0,1-.72-3.45L102,353.53,278.25,252,403.6,322.9A2.34,2.34,0,0,1,403.61,327Z" style="opacity: 0.1; transform-origin: 238.049px 347.205px;" class="animable"></path></g><g id="el5aw8ibltzom"><path d="M211.18,215.59c-6.31-3.56-16.44-3.47-22.64.22s-6.11,9.55.2,13.11,16.45,3.46,22.64-.22S217.49,219.15,211.18,215.59Z" style="opacity: 0.1; transform-origin: 199.958px 222.253px;" class="animable"></path></g><g id="el9snk5r1e0c5"><path d="M152.66,243c-7.47-4.22-19.49-4.1-26.83.27s-7.24,11.32.23,15.54,19.5,4.1,26.84-.26S160.14,247.19,152.66,243Z" style="opacity: 0.1; transform-origin: 139.364px 250.906px;" class="animable"></path></g><g id="elyqn2td0a6h"><path d="M84.43,281.41c-9-5.08-23.46-4.94-32.3.32s-8.72,13.63.28,18.71,23.47,4.94,32.31-.32S93.43,286.49,84.43,281.41Z" style="opacity: 0.1; transform-origin: 68.4225px 290.925px;" class="animable"></path></g></g><g id="freepik--Clouds--inject-85" class="animable" style="transform-origin: 112.955px 68.8859px;"><path d="M91.48,50.35c4.63-2.67,8.54-1.37,9.78,2.79a13.74,13.74,0,0,1,5-5.57c3.62-2.09,6.57-.41,6.59,3.76v1.91l4.87-2.81c2.54-1.47,4.6-.29,4.61,2.63A10.1,10.1,0,0,1,117.75,61L76.52,84.8c-2.54,1.46-4.6.29-4.61-2.63a10.1,10.1,0,0,1,4.58-7.94l4.87-2.81V67.9C81.33,61.45,85.87,53.59,91.48,50.35Z" style="fill: rgb(230, 230, 230); transform-origin: 97.12px 66.0499px;" id="eljpsye1gs7z" class="animable"></path><path d="M131.88,65.94c3.32-1.92,6.13-1,7,2a9.85,9.85,0,0,1,3.59-4c2.6-1.5,4.72-.3,4.73,2.69V68l3.49-2c1.83-1,3.31-.21,3.31,1.89a7.21,7.21,0,0,1-3.29,5.69L121.15,90.67c-1.83,1-3.31.21-3.32-1.89a7.3,7.3,0,0,1,3.29-5.7l3.5-2V78.54A16,16,0,0,1,131.88,65.94Z" style="fill: rgb(230, 230, 230); transform-origin: 135.915px 77.197px;" id="el53xyjsg00t" class="animable"></path></g><g id="freepik--Trees--inject-85" class="animable" style="transform-origin: 126.639px 194.89px;"><path d="M210.14,165.18l-2.16-.52-6,12.06v-21.1h0a.76.76,0,0,0-.46-.65,2.38,2.38,0,0,0-2.19,0,.79.79,0,0,0-.45.63h0v17.75l-7.45-12.26-1.63,1.29,9.08,14.32v45.21h0a.79.79,0,0,0,.46.65,2.44,2.44,0,0,0,2.2,0,.77.77,0,0,0,.44-.62h0V181.26h0Z" style="fill: rgb(64, 123, 255); transform-origin: 199.97px 188.763px;" id="elvqesr31tcrb" class="animable"></path><g id="eljdaxq7xlvs9"><path d="M210.14,165.18l-2.16-.52-6,12.06v-21.1h0a.76.76,0,0,0-.46-.65,2.38,2.38,0,0,0-2.19,0,.79.79,0,0,0-.45.63h0v17.75l-7.45-12.26-1.63,1.29,9.08,14.32v45.21h0a.79.79,0,0,0,.46.65,2.44,2.44,0,0,0,2.2,0,.77.77,0,0,0,.44-.62h0V181.26h0Z" style="opacity: 0.4; transform-origin: 199.97px 188.763px;" class="animable"></path></g><circle cx="182.01" cy="151.46" r="14.82" style="fill: rgb(64, 123, 255); transform-origin: 182.01px 151.46px;" id="el3buo39llfb7" class="animable"></circle><g id="elocz3c79l1ck"><circle cx="182.01" cy="151.46" r="14.82" style="opacity: 0.1; transform-origin: 182.01px 151.46px;" class="animable"></circle></g><circle cx="214.53" cy="145.33" r="21.37" style="fill: rgb(64, 123, 255); transform-origin: 214.53px 145.33px;" id="elwcw00ugpo09" class="animable"></circle><g id="elyioyfflfuxm"><circle cx="214.53" cy="145.33" r="21.37" style="opacity: 0.1; transform-origin: 214.53px 145.33px;" class="animable"></circle></g><g id="elmwxu6d8jlfe"><path d="M227.44,158.51c-2.93-1-4.69-3.91-5.93-6.73a50.67,50.67,0,0,1-3.7-27.56,20.94,20.94,0,0,0-3.28-.25,21.37,21.37,0,1,0,16.66,34.74A7.57,7.57,0,0,1,227.44,158.51Z" style="opacity: 0.2; transform-origin: 212.17px 145.34px;" class="animable"></path></g><g id="elv9kbrzngdie"><path d="M182,136.64a14.75,14.75,0,0,0-8.61,2.78A32.13,32.13,0,0,0,177,153.63a15.06,15.06,0,0,1,1.52,3.41,3.88,3.88,0,0,1-.7,3.53c-1.11,1.19-3,1.18-4.56.74a11.08,11.08,0,0,1-3.75-1.9A14.81,14.81,0,1,0,182,136.64Z" style="opacity: 0.3; transform-origin: 183.159px 151.45px;" class="animable"></path></g><g id="el01v8fe50z3pb"><circle cx="200.42" cy="135.68" r="26.71" style="fill: rgb(64, 123, 255); transform-origin: 200.42px 135.68px; transform: rotate(-40.5392deg);" class="animable"></circle></g><g id="eld5ionq04"><path d="M206.56,150.09a26.71,26.71,0,0,1-26.71-26.71,26.27,26.27,0,0,1,.54-5.36,26.71,26.71,0,1,0,46.21,23A26.62,26.62,0,0,1,206.56,150.09Z" style="opacity: 0.2; transform-origin: 200.16px 140.205px;" class="animable"></path></g><path d="M151.42,183.23l-2.55-.62-7.12,14.3v-25h0a.91.91,0,0,0-.55-.76,2.87,2.87,0,0,0-2.6,0,1,1,0,0,0-.53.74h0v21.05l-8.84-14.53-1.92,1.52,10.76,17v53.58h0a.93.93,0,0,0,.55.77,2.84,2.84,0,0,0,2.6,0,.92.92,0,0,0,.53-.74h0v-48.2h0Z" style="fill: rgb(64, 123, 255); transform-origin: 139.365px 211.217px;" id="eltx2phy4g2r" class="animable"></path><g id="elcpn7x1b7e06"><path d="M151.42,183.23l-2.55-.62-7.12,14.3v-25h0a.91.91,0,0,0-.55-.76,2.87,2.87,0,0,0-2.6,0,1,1,0,0,0-.53.74h0v21.05l-8.84-14.53-1.92,1.52,10.76,17v53.58h0a.93.93,0,0,0,.55.77,2.84,2.84,0,0,0,2.6,0,.92.92,0,0,0,.53-.74h0v-48.2h0Z" style="opacity: 0.4; transform-origin: 139.365px 211.217px;" class="animable"></path></g><circle cx="118.09" cy="166.96" r="17.56" style="fill: rgb(64, 123, 255); transform-origin: 118.09px 166.96px;" id="ellh4hik14bx" class="animable"></circle><g id="elwig2ay2vpr"><circle cx="118.09" cy="166.96" r="17.56" style="opacity: 0.2; transform-origin: 118.09px 166.96px;" class="animable"></circle></g><circle cx="156.63" cy="159.71" r="25.33" style="fill: rgb(64, 123, 255); transform-origin: 156.63px 159.71px;" id="elqs1sqaydi4" class="animable"></circle><g id="el2hamkyqgbjq"><circle cx="156.63" cy="159.71" r="25.33" style="opacity: 0.2; transform-origin: 156.63px 159.71px;" class="animable"></circle></g><g id="ellfu4247v7mp"><path d="M171.93,175.33c-3.47-1.16-5.56-4.64-7-8a60,60,0,0,1-4.38-32.67,25,25,0,0,0-3.89-.3,25.33,25.33,0,1,0,19.74,41.18A9,9,0,0,1,171.93,175.33Z" style="opacity: 0.1; transform-origin: 153.856px 159.69px;" class="animable"></path></g><g id="el37czjtbyn6l"><path d="M118.09,149.4a17.49,17.49,0,0,0-10.21,3.29,38.13,38.13,0,0,0,4.29,16.84,17.83,17.83,0,0,1,1.8,4.05,4.59,4.59,0,0,1-.83,4.19c-1.31,1.4-3.55,1.39-5.4.88a13.2,13.2,0,0,1-4.45-2.26,17.56,17.56,0,1,0,14.8-27Z" style="opacity: 0.1; transform-origin: 119.473px 166.95px;" class="animable"></path></g><g id="elxtae1lj8p78"><circle cx="139.91" cy="148.27" r="31.66" style="fill: rgb(64, 123, 255); transform-origin: 139.91px 148.27px; transform: rotate(-22.93deg);" class="animable"></circle></g><g id="elpo89mvffig8"><path d="M147.19,165.35a31.66,31.66,0,0,1-31.66-31.67,32.3,32.3,0,0,1,.63-6.34,31.66,31.66,0,1,0,54.78,27.27A31.58,31.58,0,0,1,147.19,165.35Z" style="opacity: 0.1; transform-origin: 139.602px 153.63px;" class="animable"></path></g><path d="M82.93,221.56l-3.07-.75L71.29,238V207.91h0a1.09,1.09,0,0,0-.66-.92,3.45,3.45,0,0,0-3.13,0,1.09,1.09,0,0,0-.63.89h0v25.33L56.23,215.75l-2.32,1.84,13,20.43v52.44h0a1.07,1.07,0,0,0,.66.92,3.42,3.42,0,0,0,3.13,0,1.11,1.11,0,0,0,.63-.89h0v-46h0Z" style="fill: rgb(64, 123, 255); transform-origin: 68.42px 249.187px;" id="el5ibys8pw46p" class="animable"></path><g id="elp5enoqdij9"><path d="M82.93,221.56l-3.07-.75L71.29,238V207.91h0a1.09,1.09,0,0,0-.66-.92,3.45,3.45,0,0,0-3.13,0,1.09,1.09,0,0,0-.63.89h0v25.33L56.23,215.75l-2.32,1.84,13,20.43v52.44h0a1.07,1.07,0,0,0,.66.92,3.42,3.42,0,0,0,3.13,0,1.11,1.11,0,0,0,.63-.89h0v-46h0Z" style="opacity: 0.4; transform-origin: 68.42px 249.187px;" class="animable"></path></g><g id="elw2z2jpjh9c"><circle cx="42.82" cy="201.98" r="21.14" style="fill: rgb(64, 123, 255); transform-origin: 42.82px 201.98px; transform: rotate(-22.5deg);" class="animable"></circle></g><g id="el5jetdh3d0p2"><circle cx="42.82" cy="201.98" r="21.14" style="opacity: 0.1; transform-origin: 42.82px 201.98px; transform: rotate(-22.5deg);" class="animable"></circle></g><circle cx="89.2" cy="193.24" r="30.48" style="fill: rgb(64, 123, 255); transform-origin: 89.2px 193.24px;" id="elq891qff7" class="animable"></circle><g id="eljyyoceh5io"><circle cx="89.2" cy="193.24" r="30.48" style="opacity: 0.1; transform-origin: 89.2px 193.24px;" class="animable"></circle></g><g id="el5fgkq2l4rxv"><path d="M107.62,212c-4.17-1.39-6.69-5.57-8.46-9.6a72.24,72.24,0,0,1-5.28-39.32,30.16,30.16,0,0,0-4.68-.36A30.49,30.49,0,1,0,113,212.32,10.67,10.67,0,0,1,107.62,212Z" style="opacity: 0.2; transform-origin: 85.876px 193.21px;" class="animable"></path></g><g id="el3zg0m9x8a9p"><path d="M42.82,180.84a21.05,21.05,0,0,0-12.29,4,45.88,45.88,0,0,0,5.16,20.27A21.27,21.27,0,0,1,37.86,210a5.55,5.55,0,0,1-1,5c-1.58,1.69-4.28,1.68-6.51,1.06A15.71,15.71,0,0,1,25,213.32a21.13,21.13,0,1,0,17.81-32.48Z" style="opacity: 0.2; transform-origin: 44.4764px 201.97px;" class="animable"></path></g><circle cx="69.08" cy="179.48" r="38.11" style="fill: rgb(64, 123, 255); transform-origin: 69.08px 179.48px;" id="eletft7i9iaq" class="animable"></circle><g id="elb0bsyx6tppl"><path d="M77.84,200a38.17,38.17,0,0,1-37.35-45.75,38.11,38.11,0,1,0,65.93,32.83A38,38,0,0,1,77.84,200Z" style="opacity: 0.2; transform-origin: 68.6962px 185.903px;" class="animable"></path></g></g><g id="freepik--Speedometer--inject-85" class="animable animator-active" style="transform-origin: 369.24px 122.237px;"><path d="M379,53.5c-13.67-7.9-26.08-8.71-35.11-3.65h0l-.07,0-.17.1L317.08,65.22l13.18,4.86A54.72,54.72,0,0,0,329,82c-.09,31.3,21.71,69.34,48.85,85.5l50.76-28C428.7,107.88,406.47,69.38,379,53.5Z" style="fill: rgb(224, 224, 224); transform-origin: 372.845px 107.085px;" id="elx6wmscf7etq" class="animable"></path><path d="M431.18,141l-2.57-1.48h0l-50.76,28c.26.16.52.33.79.48.71.41,1.41.79,2.1,1.16v2.76a9,9,0,0,0,4.13,7.1,3.06,3.06,0,0,0,.51.26,51.84,51.84,0,0,0,11.87,3.7l-4.77,11.92,21.94-13.06c11.71-4.21,19.58-15.89,20.84-33.47A8.84,8.84,0,0,0,431.18,141Z" style="fill: rgb(224, 224, 224); transform-origin: 406.555px 167.21px;" id="el4rlsccm1ev7" class="animable"></path><g id="elchdj29ezgm"><path d="M431.18,141l-2.57-1.48h0l-50.76,28c.26.16.52.33.79.48.71.41,1.41.79,2.1,1.16v2.76a9,9,0,0,0,4.13,7.1,3.06,3.06,0,0,0,.51.26,51.84,51.84,0,0,0,11.87,3.7l-4.77,11.92,21.94-13.06c11.71-4.21,19.58-15.89,20.84-33.47A8.84,8.84,0,0,0,431.18,141Z" style="opacity: 0.1; transform-origin: 406.555px 167.21px;" class="animable"></path></g><polygon points="341.28 76.69 343.55 85.24 341.15 84.86 338.87 76.31 341.28 76.69" style="fill: rgb(255, 255, 255); transform-origin: 341.21px 80.775px;" id="el66mohledlrf" class="animable"></polygon><polygon points="329.61 77.1 333.9 85.48 331.94 86.23 327.66 77.86 329.61 77.1" style="fill: rgb(255, 255, 255); transform-origin: 330.78px 81.665px;" id="elim92x4by1ck" class="animable"></polygon><polygon points="320.77 83.3 326.56 90.49 325.28 92.29 319.48 85.09 320.77 83.3" style="fill: rgb(255, 255, 255); transform-origin: 323.02px 87.795px;" id="elaup99ymzh9n" class="animable"></polygon><polygon points="315.81 94.51 322.4 99.66 321.95 102.29 315.36 97.14 315.81 94.51" style="fill: rgb(255, 255, 255); transform-origin: 318.88px 98.4px;" id="elfx4ni4fplo4" class="animable"></polygon><polygon points="321.92 111.88 322.36 115.02 315.76 112.55 315.32 109.41 321.92 111.88" style="fill: rgb(255, 255, 255); transform-origin: 318.84px 112.215px;" id="elkx000h65hnn" class="animable"></polygon><polygon points="325.19 125.69 326.45 128.95 320.64 129.45 319.37 126.18 325.19 125.69" style="fill: rgb(255, 255, 255); transform-origin: 322.91px 127.57px;" id="eljw5spqlc27k" class="animable"></polygon><polygon points="331.79 139.4 333.74 142.41 329.42 145.82 327.47 142.81 331.79 139.4" style="fill: rgb(255, 255, 255); transform-origin: 330.605px 142.61px;" id="elok0oqlscud" class="animable"></polygon><polygon points="340.97 151.39 343.35 153.77 341.04 159.67 338.64 157.28 340.97 151.39" style="fill: rgb(255, 255, 255); transform-origin: 340.995px 155.53px;" id="elrrtqnk2ubtj" class="animable"></polygon><polygon points="354.11 161.65 354.09 169.35 351.55 167.88 351.57 160.18 354.11 161.65" style="fill: rgb(255, 255, 255); transform-origin: 352.83px 164.765px;" id="elvwaxm5gywp" class="animable"></polygon><polygon points="338.27 135.71 338.78 135.51 339.15 136.23 338.62 140.23 338.1 140.47 337.72 139.75 338.27 135.71" style="fill: rgb(255, 255, 255); transform-origin: 338.435px 137.99px;" id="ellth9az1vl8" class="animable"></polygon><polygon points="338.44 131.9 337.89 132.13 337.55 131.45 337.61 130.98 338.63 130.51 338.44 131.9" style="fill: rgb(255, 255, 255); transform-origin: 338.09px 131.32px;" id="eljbawxkenko" class="animable"></polygon><polygon points="343.15 138.52 342.68 141.88 341.64 142.32 342.24 137.98 342.75 137.77 343.15 138.52" style="fill: rgb(255, 255, 255); transform-origin: 342.395px 140.045px;" id="el9ef1qkqqp4p" class="animable"></polygon><polygon points="349.01 145.72 352.18 147.55 352.56 148.29 352.04 148.52 348.87 146.69 348.49 145.94 349.01 145.72" style="fill: rgb(255, 255, 255); transform-origin: 350.525px 147.12px;" id="eltrilvvniyv" class="animable"></polygon><polygon points="349.31 142.13 348.86 145.43 348.33 145.66 347.95 144.92 348.42 141.58 348.92 141.36 349.31 142.13" style="fill: rgb(255, 255, 255); transform-origin: 348.63px 143.51px;" id="el6rwd1fy7p5n" class="animable"></polygon><path d="M405.32,158.37a3,3,0,0,1,1,1.12,2.62,2.62,0,0,1,.34,1.29,48.33,48.33,0,0,1-3.83,16.28l-10.06-8.28a37,37,0,0,0,3.8-14.1c.06-.71.66-1,1.36-.56Z" style="fill: rgb(69, 90, 100); transform-origin: 399.715px 165.486px;" id="elmhqrblbzx0n" class="animable"></path><polygon points="364.74 165.11 367.01 173.66 364.62 173.29 362.34 164.73 364.74 165.11" style="fill: rgb(255, 255, 255); transform-origin: 364.675px 169.195px;" id="el0j0n4sw11kf" class="animable"></polygon><polygon points="380.62 157.69 386.4 164.88 385.13 166.68 379.33 159.48 380.62 157.69" style="fill: rgb(255, 255, 255); transform-origin: 382.865px 162.185px;" id="elsdiqupi87yo" class="animable"></polygon><path d="M392.8,168.78l10.06,8.28c-7.28,16.27-23.79,21.86-43.65,13.13l-.18-.09a3,3,0,0,1-1.41-2.39l0-8.48c0-.78.52-1.15,1.25-.84C373.93,184.67,386.64,180.57,392.8,168.78Z" style="fill: rgb(64, 123, 255); transform-origin: 380.24px 181.536px;" id="ell7rraqpeu2o" class="animable"></path><polygon points="364.86 90.31 367.24 92.69 364.93 98.59 362.53 96.2 364.86 90.31" style="fill: rgb(255, 255, 255); transform-origin: 364.885px 94.45px;" id="ele6j63u3qca" class="animable"></polygon><path d="M353.11,67.76c27.51,15.88,49.73,54.38,49.64,86L398,151a6,6,0,0,0-.68-.33c.08-28.15-19.76-62.5-44.2-76.61s-44.4-2.74-44.48,25.35,19.74,62.43,44.19,76.55c.72.41,1.43.8,2.14,1.17a4.63,4.63,0,0,0,0,.54l0,5.73c-.7-.37-1.4-.75-2.1-1.16-27.51-15.88-49.74-54.38-49.65-86S325.61,51.88,353.11,67.76Z" style="fill: rgb(235, 235, 235); transform-origin: 352.985px 122.164px;" id="elopaps962gro" class="animable"></path><polygon points="339.49 130.15 339.87 130.89 339.34 134.91 338.82 135.12 338.44 134.39 338.98 130.39 339.49 130.15" style="fill: rgb(255, 255, 255); transform-origin: 339.155px 132.635px;" id="elemmzbvn6crq" class="animable"></polygon><polygon points="343.47 137.48 346.65 139.31 347.04 140.06 346.52 140.29 343.33 138.45 342.94 137.69 343.47 137.48" style="fill: rgb(255, 255, 255); transform-origin: 344.99px 138.885px;" id="elkh4zd32ckfs" class="animable"></polygon><polygon points="343.7 134.37 343.17 134.6 342.79 133.86 342.87 133.33 343.37 133.1 343.76 133.85 343.7 134.37" style="fill: rgb(255, 255, 255); transform-origin: 343.275px 133.85px;" id="elm56b4rs792" class="animable"></polygon><polygon points="347.15 135.62 343.97 133.79 343.58 133.02 344.1 132.81 347.28 134.65 347.66 135.38 347.15 135.62" style="fill: rgb(255, 255, 255); transform-origin: 345.62px 134.215px;" id="eliimvjv9dhgj" class="animable"></polygon><polygon points="352.83 144.14 353.35 143.92 353.74 144.67 353.28 148 352.76 148.22 352.38 147.47 352.83 144.14" style="fill: rgb(255, 255, 255); transform-origin: 353.06px 146.07px;" id="elypq7cdtzxy" class="animable"></polygon><polygon points="356.81 148.64 357.01 148.75 357.22 149.16 356.95 151.08 356.71 151.21 356.51 150.84 356.81 148.64" style="fill: rgb(255, 255, 255); transform-origin: 356.865px 149.925px;" id="elzlqo9hpl4ol" class="animable"></polygon><polygon points="357.84 148.9 358.03 149.27 357.77 149.38 357.31 149.1 357.12 148.74 357.37 148.63 357.84 148.9" style="fill: rgb(255, 255, 255); transform-origin: 357.575px 149.005px;" id="eldmbxm5a7xii" class="animable"></polygon><polygon points="359.83 150.38 360.03 150.49 360.25 150.92 359.98 152.85 359.72 152.95 359.54 152.6 359.83 150.38" style="fill: rgb(255, 255, 255); transform-origin: 359.895px 151.665px;" id="ela1p1o6gk7la" class="animable"></polygon><polygon points="359.47 147.39 359.73 147.54 359.66 147.97 358.37 149.39 358.14 149.26 358 148.98 359.47 147.39" style="fill: rgb(255, 255, 255); transform-origin: 358.865px 148.39px;" id="el1xiamuy5jgo" class="animable"></polygon><polygon points="361.97 151.9 362.25 151.78 362.45 151.89 362.14 154.1 361.89 154.2 361.69 153.83 361.97 151.9" style="fill: rgb(255, 255, 255); transform-origin: 362.07px 152.99px;" id="eluqwipdhfrpq" class="animable"></polygon><polygon points="360.66 148.68 360.67 148.68 361.16 150.42 361.1 150.97 360.91 150.86 360.55 149.62 360.66 148.68" style="fill: rgb(255, 255, 255); transform-origin: 360.855px 149.825px;" id="eludg7j0958j" class="animable"></polygon><polygon points="362.15 149.54 362.02 150.47 361.4 151.15 361.22 151.04 361.28 150.5 362.14 149.53 362.15 149.54" style="fill: rgb(255, 255, 255); transform-origin: 361.685px 150.34px;" id="elp8spyq7u5t" class="animable"></polygon><polygon points="362.62 154.18 363.89 152.72 364.11 152.85 364.02 153.41 362.85 154.76 362.57 154.59 362.62 154.18" style="fill: rgb(255, 255, 255); transform-origin: 363.34px 153.74px;" id="elulb4rhc3iig" class="animable"></polygon><polygon points="362.57 149.18 362.75 149.54 362.46 151.76 362.27 151.64 362.05 151.23 362.31 149.29 362.57 149.18" style="fill: rgb(255, 255, 255); transform-origin: 362.4px 150.47px;" id="elco2ga9rtmuf" class="animable"></polygon><polygon points="365.9 153.88 366.09 154 366.3 154.41 366.05 156.34 365.79 156.46 365.59 156.09 365.9 153.88" style="fill: rgb(255, 255, 255); transform-origin: 365.945px 155.17px;" id="elmwnz9i5ergl" class="animable"></polygon><polygon points="368.2 155.14 367.94 155.24 366.39 154.35 366.2 153.99 366.45 153.88 368 154.77 368.2 155.14" style="fill: rgb(255, 255, 255); transform-origin: 367.2px 154.56px;" id="elh7kryeb0xnb" class="animable"></polygon><polygon points="368.01 155.39 368.3 155.27 368.49 155.38 368.19 157.59 367.94 157.7 367.75 157.32 368.01 155.39" style="fill: rgb(255, 255, 255); transform-origin: 368.12px 156.485px;" id="eli2y9s7tuekg" class="animable"></polygon><polygon points="366.39 153.74 366.11 153.86 365.91 153.75 366.21 151.56 366.46 151.43 366.65 151.81 366.39 153.74" style="fill: rgb(255, 255, 255); transform-origin: 366.28px 152.645px;" id="elbtap074czg5" class="animable"></polygon><polygon points="368.61 152.67 368.81 153.06 368.51 155.25 368.31 155.13 368.1 154.73 368.37 152.8 368.61 152.67" style="fill: rgb(255, 255, 255); transform-origin: 368.455px 153.96px;" id="elh1hj34rxdp9" class="animable"></polygon><path d="M357.84,126a8.24,8.24,0,0,1,.24,1.94c0,3.25-2.32,4.57-5.15,2.94a11.29,11.29,0,0,1-5.11-8.86c0-3.26,2.31-4.57,5.15-2.94a8.48,8.48,0,0,1,1.28.93A12,12,0,0,1,357.84,126Zm-4.9,2.51c1.7,1,3.08.2,3.09-1.75a6.78,6.78,0,0,0-3.07-5.32c-1.7-1-3.08-.19-3.09,1.76a6.77,6.77,0,0,0,3.07,5.31" style="fill: rgb(230, 230, 230); transform-origin: 352.95px 124.979px;" id="elw5qr2a9ntip" class="animable"></path><path d="M353,121.45a6.78,6.78,0,0,1,3.07,5.32c0,2-1.39,2.74-3.09,1.75a6.77,6.77,0,0,1-3.07-5.31C349.88,121.26,351.26,120.47,353,121.45Z" style="fill: rgb(64, 123, 255); transform-origin: 352.99px 124.993px;" id="elj71pc8n8ojf" class="animable"></path><path d="M371.21,110.15a2.27,2.27,0,0,1,.75.76c.47.72.54,1.56.17,1.91L357.84,126a12,12,0,0,0-3.59-6l16.13-9.94A.82.82,0,0,1,371.21,110.15Z" style="fill: rgb(64, 123, 255); transform-origin: 363.308px 117.993px;" id="elajwgqs3siil" class="animable"></path><polygon points="390.14 137.43 390.57 140.57 383.98 138.1 383.54 134.96 390.14 137.43" style="fill: rgb(255, 255, 255); transform-origin: 387.055px 137.765px;" id="elw7svcfw989l" class="animable"></polygon><polygon points="385.26 120.53 386.52 123.79 380.71 124.29 379.44 121.02 385.26 120.53" style="fill: rgb(255, 255, 255); transform-origin: 382.98px 122.41px;" id="elar1uqodwigt" class="animable"></polygon><polygon points="376.48 104.15 378.42 107.16 374.09 110.57 372.15 107.56 376.48 104.15" style="fill: rgb(255, 255, 255); transform-origin: 375.285px 107.36px;" id="el7lghugn64e" class="animable"></polygon><path d="M353.09,74c-24.45-14.12-44.4-2.74-44.48,25.35s19.74,62.43,44.19,76.55c.72.41,1.43.8,2.14,1.17.22-2,1.69-2.84,3.57-2.05,18.8,7.84,33.62-1.29,35.37-22.23a2.37,2.37,0,0,1,3.41-2.24C397.37,122.5,377.53,88.15,353.09,74Zm32.17,46.49,1.26,3.26-5.81.5L379.44,121l5.82-.49m-20.4-30.22,2.38,2.38-2.31,5.9-2.4-2.39,2.33-5.89m-13.07-9.69,2.55,1.47,0,7.7-2.55-1.47,0-7.7M353,119.09a8.48,8.48,0,0,1,1.28.93l16.13-9.94a.82.82,0,0,1,.83.07,2.27,2.27,0,0,1,.75.76c.47.72.54,1.56.17,1.91L357.84,126a8.24,8.24,0,0,1,.24,1.94c0,3.25-2.32,4.57-5.15,2.94a11.29,11.29,0,0,1-5.11-8.86c0-3.26,2.31-4.57,5.15-2.94m-11.69-42.4,2.26,8.55-2.39-.37-2.28-8.56,2.41.38M315.81,94.51l6.59,5.15-.45,2.63-6.59-5.15.45-2.63m-.49,14.9,6.6,2.47.44,3.14-6.6-2.47-.44-3.14m5.32,20-1.27-3.27,5.82-.49,1.26,3.26-5.81.5m4.64-37.16-5.8-7.2,1.29-1.8,5.79,7.2-1.28,1.8m4.14,53.53-1.95-3,4.32-3.41,1.95,3-4.32,3.41m2.52-59.59-4.28-8.37,1.95-.76,4.29,8.38-2,.75m9.1,73.44-2.4-2.39,2.33-5.89,2.38,2.38-2.31,5.9m13,9.68-2.55-1.47,0-7.7,2.54,1.47,0,7.7m10.53,3.94-2.28-8.56,2.4.38,2.27,8.55-2.39-.37m3.26-11.93-28.94-16.71a9,9,0,0,1-4.09-7.08l0-9.7c0-2.6,1.85-3.65,4.11-2.34l28.95,16.71a9.06,9.06,0,0,1,4.1,7.08l0,9.7c0,2.61-1.86,3.65-4.13,2.34m8.39,11.51L372,164.5l1.95-.76,4.29,8.38-2,.75m-2.18-62.3-1.94-3,4.33-3.41,1.94,3-4.33,3.41m11,56.11-5.8-7.2,1.29-1.79,5.78,7.19-1.27,1.8m5-11.21-6.59-5.15.45-2.63,6.59,5.15-.45,2.63M384,138.1l-.43-3.14,6.6,2.46.44,3.15L384,138.1" style="fill: rgb(69, 90, 100); transform-origin: 352.95px 122.869px;" id="elacpfmwlc29g" class="animable"></path><polygon points="347.8 135.66 348.19 136.41 347.75 139.75 347.22 139.97 346.83 139.22 347.28 135.88 347.8 135.66" style="fill: rgb(255, 255, 255); transform-origin: 347.51px 137.815px;" id="elwc2q2zprnq" class="animable"></polygon><polygon points="360.4 147.93 360.6 148.3 360.32 150.24 360.04 150.36 359.85 150.25 360.16 148.05 360.4 147.93" style="fill: rgb(255, 255, 255); transform-origin: 360.225px 149.145px;" id="elggbfz75boiv" class="animable"></polygon><path d="M372,149.32a9.06,9.06,0,0,0-4.1-7.08L339,125.53c-2.26-1.31-4.1-.26-4.11,2.34l0,9.7a9,9,0,0,0,4.09,7.08l28.94,16.71c2.27,1.31,4.12.27,4.13-2.34Zm-5.83,2.24.25-.13.19.38-.26,1.93-.28.12-.2-.11.3-2.19m-6.74-4.17.26.15-.07.43-1.3,1.42-.22-.13L358,149l1.47-1.59m-2.34-1.08.25-.12.19.38-.26,1.93-.29.12-.19-.12.3-2.19m-6.86-9.94,3.17,1.84.38.73-.52.23-3.16-1.82-.39-.77.52-.21m-1.24.52.52-.22.39.75-.45,3.33L349,141l-.39-.75.46-3.33m-4.93-4.08,3.18,1.84.38.73-.51.24L344,133.79l-.39-.77.52-.21m-1.23.52.5-.23.39.75-.06.52-.53.23-.38-.74.08-.53M337.61,131l1-.47-.19,1.39-.55.23-.34-.68.06-.47m1,9.25-.52.24-.38-.72.55-4,.51-.2.37.72-.53,4m.72-5.32-.52.21-.38-.73.54-4,.51-.24.38.74-.53,4m2.9,3.07.52-.21.39.75-.47,3.36-1,.44.59-4.34m-.44,4.63,1-.45L346,144l.77,1.49-5-2.87m4.72-2.32-3.19-1.84-.39-.75.53-.22,3.18,1.83.39.75-.52.23m.7-.32-.39-.75.45-3.34.52-.22.39.75-.44,3.34-.53.22m.73,4.95.46-3.34.51-.22.39.77-.45,3.3-.53.24-.38-.75m4.09,3.6-3.17-1.84-.38-.74.52-.22,3.17,1.83.38.74-.52.23m1.24-.52-.52.22-.38-.75.45-3.33.52-.22.39.75-.46,3.33m.63-4.68-.52.21-.39-.76.45-3.33.53-.21.39.75-.46,3.34m3,7.76-.24.13-.2-.37.3-2.2.2.11.21.4-.27,1.93m.36-2-.19-.37.25-.11.47.27.19.37-.26.11-.46-.27m1.74,3.45-.26-.15-.86-2.93.2-.08.21.12.77,2.61-.06.43m.93.29-.26.1-.18-.35.29-2.22.2.11.22.43-.27,1.93m.06-2.49-.19-.11.31-2.2.24-.12.2.37-.28,1.94-.28.12m1.06.61-.19-.11-.36-1.24.11-.94h0l.49,1.74-.06.55m.12.07.06-.54.86-1h0l-.13.93-.62.68-.18-.11m.92,3.06-.25.1-.2-.37.28-1.93.28-.12.2.11-.31,2.21m.13-2.46-.22-.41.26-1.94.26-.11.18.37-.29,2.21-.19-.12m1.75,1.77-1.17,1.35-.28-.17.05-.41,1.27-1.46.22.13-.09.56m.23-.62.07-.57,1.18-1.35.28.17,0,.41-1.27,1.46-.21-.12m1.8,3.55-.26.11-.2-.36.31-2.21.19.11.21.42-.25,1.93m.15-2.35.25-.11,1.55.89.2.37-.26.1-1.55-.89-.19-.36m2,3.6-.25.11-.19-.38.26-1.93.29-.12.19.11-.3,2.21m.32-2.34-.2-.12-.21-.4.26-1.93.25-.13.2.38-.3,2.2" style="fill: rgb(64, 123, 255); transform-origin: 353.47px 143.446px;" id="elfvo67bpr9q" class="animable"></path><polygon points="342.84 142.16 346.02 143.99 346.79 145.48 341.8 142.61 342.84 142.16" style="fill: rgb(255, 255, 255); transform-origin: 344.295px 143.82px;" id="el6qg2tnub5qr" class="animable"></polygon><polygon points="349.49 140.75 348.96 140.97 348.57 140.22 349.03 136.89 349.55 136.67 349.94 137.42 349.49 140.75" style="fill: rgb(255, 255, 255); transform-origin: 349.255px 138.82px;" id="elluzpisfcxyo" class="animable"></polygon><polygon points="358.13 149.4 358.34 149.52 359.11 152.13 359.05 152.56 358.79 152.41 357.93 149.48 358.13 149.4" style="fill: rgb(255, 255, 255); transform-origin: 358.52px 150.98px;" id="ely0h1aunp7a" class="animable"></polygon><polygon points="357.31 148.5 357.02 148.62 356.83 148.5 357.13 146.31 357.38 146.19 357.57 146.57 357.31 148.5" style="fill: rgb(255, 255, 255); transform-origin: 357.2px 147.405px;" id="eluwbxnxqthr8" class="animable"></polygon><polygon points="353.98 139.22 354.37 139.98 353.91 143.32 353.39 143.53 353 142.76 353.45 139.44 353.98 139.22" style="fill: rgb(255, 255, 255); transform-origin: 353.685px 141.375px;" id="elod9f0utwg7a" class="animable"></polygon><polygon points="353.3 139.17 350.14 137.35 349.75 136.58 350.27 136.37 353.44 138.21 353.82 138.94 353.3 139.17" style="fill: rgb(255, 255, 255); transform-origin: 351.785px 137.77px;" id="el3p2tlxsy9fp" class="animable"></polygon><polygon points="365.5 150.88 365.78 151.04 365.73 151.45 364.46 152.91 364.25 152.79 364.32 152.22 365.5 150.88" style="fill: rgb(255, 255, 255); transform-origin: 365.015px 151.895px;" id="el95kexh1migk" class="animable"></polygon><polygon points="373.94 163.74 378.23 172.12 376.27 172.87 371.99 164.5 373.94 163.74" style="fill: rgb(255, 255, 255); transform-origin: 375.11px 168.305px;" id="elmy8eq17169a" class="animable"></polygon><polygon points="383.95 147.69 390.54 152.84 390.09 155.47 383.5 150.32 383.95 147.69" style="fill: rgb(255, 255, 255); transform-origin: 387.02px 151.58px;" id="el3wvdwtjjtm6" class="animable"></polygon><polygon points="354.34 82.09 354.32 89.79 351.77 88.32 351.79 80.62 354.34 82.09" style="fill: rgb(255, 255, 255); transform-origin: 353.055px 85.205px;" id="elvjqfsyoey5" class="animable"></polygon><path d="M405.33,155.23a8.87,8.87,0,0,1,4.08,7.36c-2.14,29.79-23.23,42.63-49.89,30.91a4.09,4.09,0,0,1-.51-.26,9.07,9.07,0,0,1-4.13-7.1v-2.76l0-5.73a4.63,4.63,0,0,1,0-.54c.22-2,1.69-2.84,3.57-2.05,18.8,7.84,33.62-1.29,35.37-22.23.17-2,1.62-2.87,3.41-2.18a6,6,0,0,1,.68.33l4.78,2.76Zm1.36,5.55a2.62,2.62,0,0,0-.34-1.29,3,3,0,0,0-1-1.12L398,154.12c-.7-.41-1.3-.15-1.36.56a37,37,0,0,1-3.8,14.1c-6.16,11.79-18.87,15.89-33.91,9.61-.73-.31-1.25.06-1.25.84l0,8.48A3,3,0,0,0,359,190.1l.18.09c19.86,8.73,36.37,3.14,43.65-13.13a48.33,48.33,0,0,0,3.83-16.28" style="fill: rgb(235, 235, 235); transform-origin: 382.141px 174.11px;" id="ely70wmq33rc" class="animable"></path></g><g id="freepik--Car--inject-85" class="animable" style="transform-origin: 260.145px 316.865px;"><path d="M248.79,244.58l88.9-47.11L248.81,253c-2,1.17-3.67.23-3.68-2.09A8.06,8.06,0,0,1,248.79,244.58Z" style="fill: rgb(64, 123, 255); transform-origin: 291.41px 225.487px;" id="el7fwzuoecch" class="animable"></path><path d="M275.62,240.24l41.22-21.85-41.21,25.75c-.94.55-1.7.11-1.7-1A3.71,3.71,0,0,1,275.62,240.24Z" style="fill: rgb(64, 123, 255); transform-origin: 295.385px 231.383px;" id="el6eluo1it37" class="animable"></path><path d="M262.41,229.45l51.47-27.27-51.45,32.14c-1.17.68-2.13.14-2.13-1.21A4.68,4.68,0,0,1,262.41,229.45Z" style="fill: rgb(64, 123, 255); transform-origin: 287.09px 218.397px;" id="eli8rkxldjs8" class="animable"></path><g id="elqg9i8df3pih"><g style="opacity: 0.6; transform-origin: 291.41px 225.487px;" class="animable"><path d="M248.79,244.58l88.9-47.11L248.81,253c-2,1.17-3.67.23-3.68-2.09A8.06,8.06,0,0,1,248.79,244.58Z" style="fill: rgb(255, 255, 255); transform-origin: 291.41px 225.487px;" id="el2feqd7covpv" class="animable"></path><path d="M275.62,240.24l41.22-21.85-41.21,25.75c-.94.55-1.7.11-1.7-1A3.71,3.71,0,0,1,275.62,240.24Z" style="fill: rgb(255, 255, 255); transform-origin: 295.385px 231.383px;" id="eloqm1mvlvvd" class="animable"></path><path d="M262.41,229.45l51.47-27.27-51.45,32.14c-1.17.68-2.13.14-2.13-1.21A4.68,4.68,0,0,1,262.41,229.45Z" style="fill: rgb(255, 255, 255); transform-origin: 287.09px 218.397px;" id="el9s9qpxftc9" class="animable"></path></g></g><polygon points="380.55 329.71 365.05 321.29 365.05 303.86 380.55 312.52 380.55 329.71" style="fill: rgb(64, 123, 255); transform-origin: 372.8px 316.785px;" id="elhep6kthrcom" class="animable"></polygon><polygon points="254.38 402.4 239.25 394.33 239.25 373.04 254.38 381.78 254.38 402.4" style="fill: rgb(64, 123, 255); transform-origin: 246.815px 387.72px;" id="el2a320sm5pox" class="animable"></polygon><g id="elh4mgr1e7qja"><g style="opacity: 0.7; transform-origin: 309.9px 353.13px;" class="animable"><polygon points="380.55 329.71 365.05 321.29 365.05 303.86 380.55 312.52 380.55 329.71" id="elwyixa4atu8o" class="animable" style="transform-origin: 372.8px 316.785px;"></polygon><polygon points="254.38 402.4 239.25 394.33 239.25 373.04 254.38 381.78 254.38 402.4" id="elbam0b3rwluj" class="animable" style="transform-origin: 246.815px 387.72px;"></polygon></g></g><path d="M221.65,413.34c0-10,7-22.23,15.74-27.27,4.36-2.51,8.31-2.76,11.18-1.13l-14.28-8.09c-2.91-2-7.1-1.93-11.76.76-8.73,5-15.77,17.25-15.74,27.27,0,5,1.81,8.57,4.71,10.19h0l13.87,7.79C223.06,421,221.66,417.77,221.65,413.34Z" style="fill: rgb(55, 71, 79); transform-origin: 227.68px 399.159px;" id="el5gy97n0onm7" class="animable"></path><polygon points="248.58 384.94 248.58 384.94 248.58 384.94 248.58 384.94" style="fill: rgb(55, 71, 79); transform-origin: 248.58px 384.94px;" id="el73za85q7a1x" class="animable"></polygon><path d="M248.58,385h0c-2.87-1.63-6.82-1.38-11.18,1.13-8.72,5-15.77,17.25-15.74,27.27,0,4.43,1.41,7.7,3.72,9.52,2.9,2.3,7.26,2.32,12.12-.49,8.72-5,15.78-17.24,15.75-27.27C253.22,390.1,251.44,386.58,248.58,385Z" style="fill: rgb(69, 90, 100); transform-origin: 237.455px 404.282px;" id="elxpspn05e26p" class="animable"></path><g id="el3arnd4fj5sb"><ellipse cx="237.44" cy="404.22" rx="15.61" ry="9.04" style="fill: rgb(69, 90, 100); transform-origin: 237.44px 404.22px; transform: rotate(-59.84deg);" class="animable"></ellipse></g><path d="M244.69,389.3a9.56,9.56,0,0,1,2,6.4c0,7.51-5.27,16.67-11.81,20.45-2.74,1.58-5.27,2-7.28,1.31,2.13,2.43,5.76,2.75,9.87.37,6.54-3.77,11.83-12.93,11.81-20.45C249.28,393,247.47,390.18,244.69,389.3Z" style="fill: rgb(224, 224, 224); transform-origin: 238.44px 404.379px;" id="elsukyytsh0td" class="animable"></path><path d="M234.89,416.15c6.54-3.78,11.83-12.94,11.81-20.45a9.56,9.56,0,0,0-2-6.4c-2-.65-4.54-.28-7.29,1.31-6.54,3.78-11.82,12.94-11.8,20.45a9.56,9.56,0,0,0,2,6.4C229.62,418.1,232.15,417.73,234.89,416.15Z" style="fill: rgb(235, 235, 235); transform-origin: 236.155px 403.377px;" id="el1ajelbz7uj3" class="animable"></path><path d="M232.88,407.53a11.6,11.6,0,0,1,5.27-9.13,3.71,3.71,0,0,1,3.74-.38l-2.66-1.51c-1-.67-2.38-.64-3.94.26A11.63,11.63,0,0,0,230,405.9a3.66,3.66,0,0,0,1.58,3.41h0l2.52,1.41A3.93,3.93,0,0,1,232.88,407.53Z" style="fill: rgb(224, 224, 224); transform-origin: 235.935px 403.383px;" id="el8iudbds7eic" class="animable"></path><polygon points="241.89 398.02 241.89 398.02 241.89 398.02 241.89 398.02" style="fill: rgb(55, 71, 79); transform-origin: 241.89px 398.02px;" id="elz1x7ciqya9j" class="animable"></polygon><path d="M241.89,398h0a3.71,3.71,0,0,0-3.74.38,11.6,11.6,0,0,0-5.27,9.13,3.93,3.93,0,0,0,1.24,3.19c1,.77,2.43.77,4.06-.17a11.6,11.6,0,0,0,5.27-9.13A3.68,3.68,0,0,0,241.89,398Z" style="fill: rgb(250, 250, 250); transform-origin: 238.168px 404.46px;" id="elfhbaz4uegc6" class="animable"></path><path d="M348.08,340.59c0-10,7-22.23,15.74-27.26,4.36-2.52,8.31-2.77,11.18-1.13l-14.29-8.1c-2.9-2-7.09-1.93-11.76.76-8.72,5-15.77,17.25-15.74,27.27,0,5.05,1.82,8.57,4.72,10.19h0l13.86,7.79C349.49,348.29,348.09,345,348.08,340.59Z" style="fill: rgb(55, 71, 79); transform-origin: 354.105px 326.409px;" id="elya990z2q6qb" class="animable"></path><polygon points="375 312.2 375 312.2 375 312.2 375 312.2" style="fill: rgb(55, 71, 79); transform-origin: 375px 312.2px;" id="elf5bm3tglqa8" class="animable"></polygon><path d="M375,312.2h0c-2.87-1.64-6.82-1.39-11.18,1.13-8.73,5-15.77,17.24-15.74,27.26,0,4.44,1.41,7.7,3.71,9.52,2.91,2.31,7.27,2.32,12.13-.49,8.72-5,15.77-17.24,15.74-27.26C379.65,317.35,377.87,313.83,375,312.2Z" style="fill: rgb(69, 90, 100); transform-origin: 363.87px 331.476px;" id="els99wn59k7e" class="animable"></path><path d="M363.83,318.75c6.12-3.53,11.09-.69,11.11,6.33s-4.92,15.59-11,19.12-11.09.7-11.11-6.33S357.72,322.28,363.83,318.75Z" style="fill: rgb(69, 90, 100); transform-origin: 363.885px 331.476px;" id="elc88qwo9rijh" class="animable"></path><path d="M371.11,316.55a9.55,9.55,0,0,1,2,6.4c0,7.52-5.27,16.68-11.81,20.45-2.75,1.59-5.27,2-7.28,1.32,2.13,2.42,5.76,2.74,9.87.37,6.54-3.78,11.83-12.93,11.81-20.45C375.7,320.28,373.9,317.44,371.11,316.55Z" style="fill: rgb(224, 224, 224); transform-origin: 364.86px 331.63px;" id="elx8exq0yir68" class="animable"></path><path d="M361.32,343.4c6.54-3.77,11.83-12.93,11.81-20.45a9.55,9.55,0,0,0-2-6.4c-2-.64-4.53-.27-7.28,1.31C357.29,321.64,352,330.8,352,338.32a9.55,9.55,0,0,0,2,6.4C356.05,345.36,358.57,345,361.32,343.4Z" style="fill: rgb(235, 235, 235); transform-origin: 362.565px 330.636px;" id="elzxr4dbmhvhq" class="animable"></path><path d="M359.3,334.78a11.63,11.63,0,0,1,5.27-9.13,3.78,3.78,0,0,1,3.75-.38l-2.66-1.5c-1-.68-2.38-.65-3.94.25a11.63,11.63,0,0,0-5.27,9.13,3.66,3.66,0,0,0,1.58,3.42h0l2.52,1.4A3.92,3.92,0,0,1,359.3,334.78Z" style="fill: rgb(224, 224, 224); transform-origin: 362.374px 330.634px;" id="el5pu9q9vomzf" class="animable"></path><polygon points="368.32 325.27 368.32 325.27 368.32 325.27 368.32 325.27" style="fill: rgb(55, 71, 79); transform-origin: 368.32px 325.27px;" id="elau5i0n6zh" class="animable"></polygon><path d="M368.32,325.27h0a3.78,3.78,0,0,0-3.75.38,11.63,11.63,0,0,0-5.27,9.13,3.92,3.92,0,0,0,1.25,3.19c1,.77,2.43.78,4.06-.16a11.63,11.63,0,0,0,5.27-9.13A3.69,3.69,0,0,0,368.32,325.27Z" style="fill: rgb(250, 250, 250); transform-origin: 364.594px 331.736px;" id="ellup2ja3wn3" class="animable"></path><polygon points="176.3 409.39 78.53 352.81 78.53 372.15 176.37 428.77 176.3 409.39" style="fill: rgb(64, 123, 255); transform-origin: 127.45px 390.79px;" id="elvcdx01sucg" class="animable"></polygon><polygon points="78.53 352.81 148.39 296.44 260.21 360.94 176.3 409.39 78.53 352.81" style="fill: rgb(64, 123, 255); transform-origin: 169.37px 352.915px;" id="el6hywvua8epr" class="animable"></polygon><g id="elw1iec1tuixq"><polygon points="78.53 352.81 148.39 296.44 260.21 360.94 176.3 409.39 78.53 352.81" style="opacity: 0.15; transform-origin: 169.37px 352.915px;" class="animable"></polygon></g><polygon points="176.37 428.77 168.99 433.05 153.04 423.85 152.42 418.05 129.01 404.53 97.11 385.98 87.1 385.64 71.15 376.43 78.53 372.15 131.69 402.97 176.37 428.77" style="fill: rgb(64, 123, 255); transform-origin: 123.76px 402.6px;" id="elqywfvsawgfg" class="animable"></polygon><polygon points="71.15 376.43 71.15 379.64 87.1 388.85 87.1 385.64 71.15 376.43" style="fill: rgb(64, 123, 255); transform-origin: 79.125px 382.64px;" id="elgv4ha9wkvgh" class="animable"></polygon><polygon points="97.11 385.98 97.11 389.19 87.1 388.85 87.1 385.64 97.11 385.98" style="fill: rgb(64, 123, 255); transform-origin: 92.105px 387.415px;" id="el49e6sdbruta" class="animable"></polygon><polygon points="152.42 418.05 152.42 421.26 97.11 389.19 97.11 385.98 152.42 418.05" style="fill: rgb(64, 123, 255); transform-origin: 124.765px 403.62px;" id="elqmdcuegk2q8" class="animable"></polygon><polygon points="153.04 423.85 153.04 427.06 152.42 421.26 152.42 418.05 153.04 423.85" style="fill: rgb(64, 123, 255); transform-origin: 152.73px 422.555px;" id="el5vt648codp" class="animable"></polygon><polygon points="168.99 433.05 168.99 436.26 153.04 427.06 153.04 423.85 168.99 433.05" style="fill: rgb(64, 123, 255); transform-origin: 161.015px 430.055px;" id="eldqaubq1qd5d" class="animable"></polygon><polygon points="176.37 428.77 176.4 431.97 168.99 436.26 168.99 433.05 176.37 428.77" style="fill: rgb(64, 123, 255); transform-origin: 172.695px 432.515px;" id="el1k21lbthgup" class="animable"></polygon><g id="elrvm0qqajvci"><polygon points="176.37 428.77 168.99 433.05 153.04 423.85 152.42 418.05 129.01 404.53 97.11 385.98 87.1 385.64 71.15 376.43 78.53 372.15 131.69 402.97 176.37 428.77" style="opacity: 0.15; transform-origin: 123.76px 402.6px;" class="animable"></polygon></g><g id="elfxffy07fv7b"><polygon points="97.11 385.98 97.11 389.19 87.1 388.85 87.1 385.64 97.11 385.98" style="opacity: 0.4; transform-origin: 92.105px 387.415px;" class="animable"></polygon></g><g id="elceycig151v"><polygon points="153.04 423.85 153.04 427.06 152.42 421.26 152.42 418.05 153.04 423.85" style="opacity: 0.4; transform-origin: 152.73px 422.555px;" class="animable"></polygon></g><g id="elqkc986bk4dd"><polygon points="176.37 428.77 176.4 431.97 168.99 436.26 168.99 433.05 176.37 428.77" style="opacity: 0.4; transform-origin: 172.695px 432.515px;" class="animable"></polygon></g><polygon points="172.84 415.35 75.07 358.76 75.07 366.86 172.91 423.47 172.84 415.35" style="fill: rgb(69, 90, 100); transform-origin: 123.99px 391.115px;" id="eld2zw7qg259h" class="animable"></polygon><polygon points="172.84 415.35 176.37 413.36 176.37 421.48 172.84 423.47 172.84 415.35" style="fill: rgb(38, 50, 56); transform-origin: 174.605px 418.415px;" id="elft8x76hoh" class="animable"></polygon><polygon points="176.37 413.36 78.6 356.8 75.07 358.76 172.84 415.35 176.37 413.36" style="fill: rgb(69, 90, 100); transform-origin: 125.72px 386.075px;" id="elu7x3u83rubk" class="animable"></polygon><g id="elpojj1j9hgzq"><polygon points="176.37 413.36 78.6 356.8 75.07 358.76 172.84 415.35 176.37 413.36" style="fill: rgb(255, 255, 255); opacity: 0.2; transform-origin: 125.72px 386.075px;" class="animable"></polygon></g><polygon points="260.21 360.94 398.47 281.15 305.19 228.06 218.1 244.93 211.11 257.04 148.39 296.44 260.21 360.94" style="fill: rgb(64, 123, 255); transform-origin: 273.43px 294.5px;" id="el1fwhy7w93wp" class="animable"></polygon><g id="elmqufcog4w2f"><polygon points="260.21 360.94 398.47 281.15 305.19 228.06 218.1 244.93 211.11 257.04 148.39 296.44 260.21 360.94" style="opacity: 0.3; transform-origin: 273.43px 294.5px;" class="animable"></polygon></g><polygon points="155.38 296.78 260.21 357.3 268.89 309.46 199.33 269.29 155.38 296.78" style="fill: rgb(55, 71, 79); transform-origin: 212.135px 313.295px;" id="elb70bguetj3t" class="animable"></polygon><polygon points="259.83 241.71 322.03 278.08 350.78 278.08 280.69 237.62 259.83 241.71" style="fill: rgb(55, 71, 79); transform-origin: 305.305px 257.85px;" id="el7y6bofq3ulh" class="animable"></polygon><polygon points="214.57 255.04 232.6 244.71 219.85 246.78 214.57 255.04" style="fill: rgb(38, 50, 56); transform-origin: 223.585px 249.875px;" id="el8u4ta6eqbcn" class="animable"></polygon><polygon points="311.85 286.29 332.82 312.52 337.87 309.54 326.74 292.91 311.85 286.29" style="fill: rgb(38, 50, 56); transform-origin: 324.86px 299.405px;" id="ellpcjn2ydxno" class="animable"></polygon><path d="M176.3,409.39l.09,22.6,44.45-10.22,0-7.68c0-10.65,7.46-23.61,16.72-29s16.8-1.06,16.83,9.59l0,7.68L260.3,399l-.09-38.05Z" style="fill: rgb(64, 123, 255); transform-origin: 218.3px 396.47px;" id="elq32lhpfh3n" class="animable"></path><polygon points="260.21 360.94 260.3 398.99 260.3 399.02 321.75 363.62 321.61 325.49 260.21 360.94" style="fill: rgb(64, 123, 255); transform-origin: 290.98px 362.255px;" id="elqxw2n0v54vo" class="animable"></polygon><path d="M398.47,281.15l-76.86,44.34.14,38.13h0L347,349.08l0-7.69c0-10.64,7.46-23.6,16.72-28.95s16.8-1.06,16.83,9.59l0,7.68,5.92-3.41,12.28-21.14Z" style="fill: rgb(64, 123, 255); transform-origin: 360.18px 322.385px;" id="elkzxb9ts9yq" class="animable"></path><g id="el6amfv6zfyrn"><path d="M176.3,409.39l.09,22.6,44.45-10.22,0-7.68c0-10.65,7.46-23.61,16.72-29s16.8-1.06,16.83,9.59l0,7.68L260.3,399l-.09-38.05Z" style="opacity: 0.4; transform-origin: 218.3px 396.47px;" class="animable"></path></g><g id="elke3fvok9ird"><polygon points="260.21 360.94 260.3 398.99 321.75 363.62 321.61 325.49 260.21 360.94" style="opacity: 0.4; transform-origin: 290.98px 362.24px;" class="animable"></polygon></g><g id="elax6tiv3rcbo"><path d="M398.47,281.15l-76.86,44.34.14,38.13L347,349.08l0-7.69c0-10.64,7.46-23.6,16.72-28.95s16.8-1.06,16.83,9.59l0,7.68,5.92-3.41,12.28-21.14Z" style="opacity: 0.4; transform-origin: 360.18px 322.385px;" class="animable"></path></g><polygon points="274.19 312.15 306.48 293.76 321.37 321.53 267.07 353.24 274.19 312.15" style="fill: rgb(55, 71, 79); transform-origin: 294.22px 323.5px;" id="ellrqvh9jzyv" class="animable"></polygon><polygon points="326.74 292.91 380.83 281.15 386.14 284.26 337.87 309.54 326.74 292.91" style="fill: rgb(64, 123, 255); transform-origin: 356.44px 295.345px;" id="elzdxh6a8w26m" class="animable"></polygon><g id="elj61f8dg46op"><polygon points="326.74 292.91 380.83 281.15 386.14 284.26 337.87 309.54 326.74 292.91" style="opacity: 0.15; transform-origin: 356.44px 295.345px;" class="animable"></polygon></g><polygon points="380.83 281.15 311.85 286.29 326.74 292.91 380.83 281.15" style="fill: rgb(64, 123, 255); transform-origin: 346.34px 287.03px;" id="eljqjlf7mz7r9" class="animable"></polygon><g id="el4fm5xph1kcf"><polygon points="380.83 281.15 311.85 286.29 326.74 292.91 380.83 281.15" style="opacity: 0.1; transform-origin: 346.34px 287.03px;" class="animable"></polygon></g><polygon points="204.62 266.21 274.19 306.37 317.87 281.24 248.01 240.91 204.62 266.21" style="fill: rgb(64, 123, 255); transform-origin: 261.245px 273.64px;" id="elir43umxawy" class="animable"></polygon><g id="el4nxy8f9hvt5"><polygon points="204.62 266.21 274.19 306.37 317.87 281.24 248.01 240.91 204.62 266.21" style="opacity: 0.15; transform-origin: 261.245px 273.64px;" class="animable"></polygon></g><g id="elkjxvr00059q"><polygon points="211.85 348.52 162.31 320.57 123.22 346.39 162.31 323.6 209.54 349.84 211.85 348.52" style="opacity: 0.2; transform-origin: 167.535px 335.205px;" class="animable"></polygon></g><polygon points="88.4 350.71 88.4 342.62 102.38 350.68 102.38 358.76 88.4 350.71" style="fill: rgb(255, 255, 255); transform-origin: 95.39px 350.69px;" id="elydokook1w0j" class="animable"></polygon><polygon points="88.4 342.62 106.46 336.93 120.44 345 102.38 350.69 88.4 342.62" style="fill: rgb(64, 123, 255); transform-origin: 104.42px 343.81px;" id="elcc8ie3nig8" class="animable"></polygon><g id="el5j0xfbfsqbj"><polygon points="88.4 342.62 106.46 336.93 120.44 345 102.38 350.69 88.4 342.62" style="opacity: 0.1; transform-origin: 104.42px 343.81px;" class="animable"></polygon></g><polygon points="102.38 350.69 120.44 345 102.38 358.76 102.38 350.69" style="fill: rgb(64, 123, 255); transform-origin: 111.41px 351.88px;" id="elpcsd79na3zg" class="animable"></polygon><g id="elk08g7ksdcxm"><polygon points="102.38 350.69 120.44 345 102.38 358.76 102.38 350.69" style="opacity: 0.15; transform-origin: 111.41px 351.88px;" class="animable"></polygon></g><g id="el1su87y5ckdr"><polygon points="102.38 350.69 120.44 345 102.38 358.76 102.38 350.69" style="opacity: 0.15; transform-origin: 111.41px 351.88px;" class="animable"></polygon></g><polygon points="162.37 393.13 162.37 385.05 176.35 393.1 176.35 401.19 162.37 393.13" style="fill: rgb(255, 255, 255); transform-origin: 169.36px 393.12px;" id="el83eb38ogfhu" class="animable"></polygon><polygon points="162.37 385.05 180.42 379.35 194.4 387.42 176.35 393.12 162.37 385.05" style="fill: rgb(64, 123, 255); transform-origin: 178.385px 386.235px;" id="elpajxoqylo0a" class="animable"></polygon><g id="el6pec6s6tvua"><polygon points="162.37 385.05 180.42 379.35 194.4 387.42 176.35 393.12 162.37 385.05" style="opacity: 0.1; transform-origin: 178.385px 386.235px;" class="animable"></polygon></g><polygon points="176.35 393.12 194.4 387.42 176.35 401.19 176.35 393.12" style="fill: rgb(64, 123, 255); transform-origin: 185.375px 394.305px;" id="elerogk99vmyi" class="animable"></polygon><g id="el8jr4qx8x2td"><polygon points="176.35 393.12 194.4 387.42 176.35 401.19 176.35 393.12" style="opacity: 0.15; transform-origin: 185.375px 394.305px;" class="animable"></polygon></g><g id="elhaqrpva5me"><polygon points="176.35 393.12 194.4 387.42 176.35 401.19 176.35 393.12" style="opacity: 0.15; transform-origin: 185.375px 394.305px;" class="animable"></polygon></g><polygon points="78.53 366.94 78.53 362.89 92.82 371.08 92.82 375.12 78.53 366.94" style="fill: rgb(255, 255, 255); transform-origin: 85.675px 369.005px;" id="elnoe1cl9oohg" class="animable"></polygon><polygon points="153.87 410.64 153.87 406.6 168.16 414.78 168.16 418.82 153.87 410.64" style="fill: rgb(255, 255, 255); transform-origin: 161.015px 412.71px;" id="ellhxy5j56a4" class="animable"></polygon><polygon points="325.57 357.5 325.57 341.2 321.75 345.99 321.75 354.66 325.57 357.5" style="fill: rgb(38, 50, 56); transform-origin: 323.66px 349.35px;" id="elb9hqzv3oxhf" class="animable"></polygon><g id="elb4ztuoihb54"><polygon points="321.75 345.99 281.18 373.04 325.57 341.2 321.75 345.99" style="opacity: 0.2; transform-origin: 303.375px 357.12px;" class="animable"></polygon></g><g id="elxt94a3t65o"><polygon points="321.75 354.66 281.18 381.01 325.57 357.5 321.75 354.66" style="opacity: 0.2; transform-origin: 303.375px 367.835px;" class="animable"></polygon></g><polygon points="402.86 278.58 398.47 281.15 398.75 305.16 402.86 302.79 402.86 278.58" style="fill: rgb(38, 50, 56); transform-origin: 400.665px 291.87px;" id="elqntu7lwgo3m" class="animable"></polygon><polygon points="305.19 228.06 398.47 281.15 402.86 278.58 309.58 225.49 305.19 228.06" style="fill: rgb(69, 90, 100); transform-origin: 354.025px 253.32px;" id="el8bmd9a4lsf" class="animable"></polygon><g id="el5c4z6j7yd0e"><polygon points="305.19 228.06 398.47 281.15 402.86 278.58 309.58 225.49 305.19 228.06" style="fill: rgb(255, 255, 255); opacity: 0.2; transform-origin: 354.025px 253.32px;" class="animable"></polygon></g><g id="elhfe8czekixk"><polygon points="301.97 233.48 285.6 236.63 291.53 239.72 301.97 233.48" style="opacity: 0.2; transform-origin: 293.785px 236.6px;" class="animable"></polygon></g><polygon points="314.38 230.81 314.38 238.88 316.12 239.89 316.12 231.82 314.38 230.81" style="fill: rgb(55, 71, 79); transform-origin: 315.25px 235.35px;" id="elihjhtaut08" class="animable"></polygon><polygon points="321.37 228.79 321.37 236.86 316.12 239.89 316.12 231.82 321.37 228.79" style="fill: rgb(38, 50, 56); transform-origin: 318.745px 234.34px;" id="elwfgyqz5c4qo" class="animable"></polygon><polygon points="370.29 263.11 370.29 271.18 372.03 272.18 372.03 264.11 370.29 263.11" style="fill: rgb(55, 71, 79); transform-origin: 371.16px 267.645px;" id="elpjzmc5crfdo" class="animable"></polygon><polygon points="377.28 261.08 377.28 269.15 372.03 272.18 372.03 264.11 377.28 261.08" style="fill: rgb(38, 50, 56); transform-origin: 374.655px 266.63px;" id="el6twcbboc2kn" class="animable"></polygon><polygon points="300.14 224.46 314.12 216.39 405.49 269.21 391.51 277.28 300.14 224.46" style="fill: rgb(64, 123, 255); transform-origin: 352.815px 246.835px;" id="elqwiecg3ca6a" class="animable"></polygon><g id="elzhfijpf5oh"><polygon points="300.14 224.46 314.12 216.39 405.49 269.21 391.51 277.28 300.14 224.46" style="fill: rgb(255, 255, 255); opacity: 0.24; transform-origin: 352.815px 246.835px;" class="animable"></polygon></g><polygon points="300.14 224.46 300.14 226.63 391.51 279.45 391.51 277.28 300.14 224.46" style="fill: rgb(64, 123, 255); transform-origin: 345.825px 251.955px;" id="elvlrefbkoho" class="animable"></polygon><polygon points="405.49 269.21 391.51 277.28 391.51 279.45 405.49 271.38 405.49 269.21" style="fill: rgb(64, 123, 255); transform-origin: 398.5px 274.33px;" id="elq9wgs4pwla" class="animable"></polygon><g id="el6w14myj0r6e"><polygon points="405.49 269.21 391.51 277.28 391.51 279.45 405.49 271.38 405.49 269.21" style="fill: rgb(255, 255, 255); opacity: 0.1; transform-origin: 398.5px 274.33px;" class="animable"></polygon></g><g id="elhthtoksgyag"><polygon points="319.18 221.12 309.54 226.65 306.21 224.71 319.18 221.12" style="opacity: 0.2; transform-origin: 312.695px 223.885px;" class="animable"></polygon></g><path d="M360.23,313.59l88.91-47.11L360.26,322c-2,1.17-3.67.23-3.68-2.09A8.08,8.08,0,0,1,360.23,313.59Z" style="fill: rgb(64, 123, 255); transform-origin: 402.86px 294.492px;" id="el0wzm2td24gke" class="animable"></path><path d="M387.07,309.25l41.22-21.84-41.21,25.75c-.94.54-1.7.1-1.71-1A3.75,3.75,0,0,1,387.07,309.25Z" style="fill: rgb(64, 123, 255); transform-origin: 406.83px 300.4px;" id="el22876ys1j94h" class="animable"></path><path d="M373.86,298.46l51.47-27.27-51.45,32.15c-1.17.67-2.13.13-2.13-1.22A4.68,4.68,0,0,1,373.86,298.46Z" style="fill: rgb(64, 123, 255); transform-origin: 398.54px 287.409px;" id="el57242b0jvjw" class="animable"></path><g id="elin6nmk28jnc"><g style="opacity: 0.4; transform-origin: 402.86px 294.492px;" class="animable"><path d="M360.23,313.59l88.91-47.11L360.26,322c-2,1.17-3.67.23-3.68-2.09A8.08,8.08,0,0,1,360.23,313.59Z" style="fill: rgb(255, 255, 255); transform-origin: 402.86px 294.492px;" id="el2iv45odcywm" class="animable"></path><path d="M387.07,309.25l41.22-21.84-41.21,25.75c-.94.54-1.7.1-1.71-1A3.75,3.75,0,0,1,387.07,309.25Z" style="fill: rgb(255, 255, 255); transform-origin: 406.83px 300.4px;" id="eloexsewjuie" class="animable"></path><path d="M373.86,298.46l51.47-27.27-51.45,32.15c-1.17.67-2.13.13-2.13-1.22A4.68,4.68,0,0,1,373.86,298.46Z" style="fill: rgb(255, 255, 255); transform-origin: 398.54px 287.409px;" id="elrmgwql0ujxh" class="animable"></path></g></g><polygon points="339.08 250.18 256.57 302.33 249.31 298.14 339.08 250.18" style="fill: rgb(64, 123, 255); transform-origin: 294.195px 276.255px;" id="elv6axn6tp3i" class="animable"></polygon><polygon points="284.87 274.4 248.31 297.51 245.1 295.65 284.87 274.4" style="fill: rgb(64, 123, 255); transform-origin: 264.985px 285.955px;" id="ell55s4ef2dx" class="animable"></polygon><polygon points="296 261.45 243.41 294.7 238.79 292.03 296 261.45" style="fill: rgb(64, 123, 255); transform-origin: 267.395px 278.075px;" id="elherbl7ale0w" class="animable"></polygon><polygon points="260.38 256.25 220.46 281.49 216.94 279.46 260.38 256.25" style="fill: rgb(64, 123, 255); transform-origin: 238.66px 268.87px;" id="ellllp4uihn1" class="animable"></polygon><polygon points="278.55 238.65 215.4 278.57 209.85 275.36 278.55 238.65" style="fill: rgb(64, 123, 255); transform-origin: 244.2px 258.61px;" id="el5ml3vtzjva2" class="animable"></polygon><polygon points="261.33 241.47 208.74 274.71 204.11 272.04 261.33 241.47" style="fill: rgb(64, 123, 255); transform-origin: 232.72px 258.09px;" id="el2hcn4rim1cb" class="animable"></polygon><g id="elohiafz2fuj"><g style="opacity: 0.5; transform-origin: 288.935px 276.255px;" class="animable"><polygon points="339.08 250.18 256.57 302.33 249.31 298.14 339.08 250.18" style="fill: rgb(255, 255, 255); transform-origin: 294.195px 276.255px;" id="elcwemewjy48p" class="animable"></polygon><polygon points="284.87 274.4 248.31 297.51 245.1 295.65 284.87 274.4" style="fill: rgb(255, 255, 255); transform-origin: 264.985px 285.955px;" id="el2m19mu94fsl" class="animable"></polygon><polygon points="296 261.45 243.41 294.7 238.79 292.03 296 261.45" style="fill: rgb(255, 255, 255); transform-origin: 267.395px 278.075px;" id="elwvtv5vdous" class="animable"></polygon></g></g><g id="elx8j1f23kil"><g style="opacity: 0.3; transform-origin: 241.33px 260.07px;" class="animable"><polygon points="260.38 256.25 220.46 281.49 216.94 279.46 260.38 256.25" style="fill: rgb(255, 255, 255); transform-origin: 238.66px 268.87px;" id="eli327dmrx5jf" class="animable"></polygon><polygon points="278.55 238.65 215.4 278.57 209.85 275.36 278.55 238.65" style="fill: rgb(255, 255, 255); transform-origin: 244.2px 258.61px;" id="elerhtayiipij" class="animable"></polygon><polygon points="261.33 241.47 208.74 274.71 204.11 272.04 261.33 241.47" style="fill: rgb(255, 255, 255); transform-origin: 232.72px 258.09px;" id="elnpoo3u5pnlg" class="animable"></polygon></g></g></g><defs>     <filter id="active" height="200%">         <feMorphology in="SourceAlpha" result="DILATED" operator="dilate" radius="2"></feMorphology>                <feFlood flood-color="#32DFEC" flood-opacity="1" result="PINK"></feFlood>        <feComposite in="PINK" in2="DILATED" operator="in" result="OUTLINE"></feComposite>        <feMerge>            <feMergeNode in="OUTLINE"></feMergeNode>            <feMergeNode in="SourceGraphic"></feMergeNode>        </feMerge>    </filter>    <filter id="hover" height="200%">        <feMorphology in="SourceAlpha" result="DILATED" operator="dilate" radius="2"></feMorphology>                <feFlood flood-color="#ff0000" flood-opacity="0.5" result="PINK"></feFlood>        <feComposite in="PINK" in2="DILATED" operator="in" result="OUTLINE"></feComposite>        <feMerge>            <feMergeNode in="OUTLINE"></feMergeNode>            <feMergeNode in="SourceGraphic"></feMergeNode>        </feMerge>            <feColorMatrix type="matrix" values="0   0   0   0   0                0   1   0   0   0                0   0   0   0   0                0   0   0   1   0 "></feColorMatrix>    </filter></defs></svg>