<svg xmlns="http://www.w3.org/2000/svg" xmlns:xlink="http://www.w3.org/1999/xlink" xmlns:lucid="lucid" width="778" height="732"><g transform="translate(-272 -170)" lucid:page-tab-id="0_0"><path d="M680 780c0 44.18-35.82 80-80 80s-80-35.82-80-80 35.82-80 80-80 80 35.82 80 80z" stroke="#5e5e5e" stroke-width="3" fill="#fc9432"/><use xlink:href="#a" transform="matrix(1,0,0,1,525,705) translate(55.745740740740764 88.40972222222217)"/><path d="M600 697.5V618" stroke="#5e5e5e" stroke-width="2" fill="none"/><path d="M601 698.53l-.98-.03H599v-1.03h2z" stroke="#5e5e5e" stroke-width=".05" fill="#5e5e5e"/><path d="M600 602.74l4.63 14.26h-9.26z" stroke="#5e5e5e" stroke-width="2" fill="#5e5e5e"/><path d="M599.3 600.8L413.07 414.57M599.27 600.78l.73.72" stroke="#5e5e5e" stroke-width="2" fill="none"/><path d="M402.3 403.8l13.35 6.8-6.55 6.55z" stroke="#5e5e5e" stroke-width="2" fill="#5e5e5e"/><path d="M600.7 599.3l186.22-186.22M600.73 599.27l-.73.73" stroke="#5e5e5e" stroke-width="2" fill="none"/><path d="M797.7 402.3l-6.8 13.35-6.55-6.55z" stroke="#5e5e5e" stroke-width="2" fill="#5e5e5e"/><path d="M600 598.5v-180M600 599.5" stroke="#5e5e5e" stroke-width="2" fill="none"/><path d="M600 403.24l4.63 14.26h-9.26z" stroke="#5e5e5e" stroke-width="2" fill="#5e5e5e"/><path d="M420 380c0 11.05-8.95 20-20 20s-20-8.95-20-20 8.95-20 20-20 20 8.95 20 20z" stroke="#5e5e5e" stroke-width="3" fill="#cfe4ff"/><use xlink:href="#b" transform="matrix(1,0,0,1,385,365) translate(8.245740740740741 19.65277777777778)"/><path d="M620 380c0 11.05-8.95 20-20 20s-20-8.95-20-20 8.95-20 20-20 20 8.95 20 20z" stroke="#5e5e5e" stroke-width="3" fill="#cfe4ff"/><use xlink:href="#b" transform="matrix(1,0,0,1,585,365) translate(8.245740740740741 19.65277777777778)"/><path d="M820 380c0 11.05-8.95 20-20 20s-20-8.95-20-20 8.95-20 20-20 20 8.95 20 20z" stroke="#5e5e5e" stroke-width="3" fill="#cfe4ff"/><use xlink:href="#b" transform="matrix(1,0,0,1,785,365) translate(8.245740740740741 19.65277777777778)"/><path d="M400.06 357.5l.07-1.08.4-2.06.7-2.13 1.07-2.3 1.68-2.64 2.75-3.3 5.93-5.47 11.17-9.46 1.5-1.78.78-1.24.47-.97.27-.83.14-.73.04-.7-.04-.66-.13-.68-.23-.7-.37-.8-.57-.88-.35-.45-1.58-1.75-3.4-3.06-12-8.7-26.25-18.12-3.58-3.22-1.68-1.85-.9-1.24-.55-.9-.34-.7-.2-.56-.12-.48-.06-.42v-.79l.1-.48.14-.53.24-.63.38-.73.62-.92 1.04-1.23 1.9-1.83 4.25-3.25 33.86-21.7 2.64-2.5 1.5-1.8.43-.7.2-.54.04-.46-.02-.43-.14-.46-.3-.5-.57-.67-1.38-1.03-6.8-2.9-13.3-5.35-2.12-1.6-.05-.03-.97-1.12-.67-1.15-.46-1.27-.24-1.57.1-2.24.35-1.43" stroke="#5e5e5e" stroke-width="2" stroke-linejoin="round" fill="none"/><path d="M401.06 357.54l-.06 1.07-.93-.1-1.07.04.07-1.13z" stroke="#5e5e5e" stroke-width=".05" fill="#5e5e5e"/><path d="M399.2 203.14l.98 14.96-8.98-2.28z" stroke="#5e5e5e" stroke-width="2" fill="#5e5e5e"/><path d="M599.22 357.53l.07-1.08.38-2.06.7-2.14 1.08-2.3 1.67-2.64 2.75-3.3 5.93-5.46 11.2-9.48 1.48-1.78.8-1.24.45-.97.26-.83.13-.73.05-.7-.04-.66-.13-.68-.23-.7-.36-.8-.56-.88-.35-.45-1.6-1.75-3.4-3.06-12-8.7-26.24-18.12-3.58-3.22-1.68-1.85-.92-1.24-.54-.9-.32-.7-.2-.56-.12-.48-.06-.42-.02-.35.03-.44.07-.48.15-.53.24-.63.4-.73.62-.92 1.04-1.23 1.9-1.83 4.25-3.25 33.87-21.7 2.62-2.5 1.5-1.8.42-.7.2-.54.05-.46-.04-.43-.14-.46-.3-.5-.57-.67-1.38-1.03-6.78-2.9-13.3-5.35-2.14-1.6-.04-.03-1-1.12-.66-1.15-.45-1.27-.24-1.57.1-2.24.35-1.43" stroke="#5e5e5e" stroke-width="2" stroke-linejoin="round" fill="none"/><path d="M600.22 357.57l-.06.94h-.1l-1.67.06-.25.04.07-1.16z" stroke="#5e5e5e" stroke-width=".05" fill="#5e5e5e"/><path d="M598.36 203.14l.98 14.96-9-2.28z" stroke="#5e5e5e" stroke-width="2" fill="#5e5e5e"/><path d="M799.22 357.53l.07-1.14.4-2.1.73-2.14 1.13-2.27 1.72-2.6 2.8-3.2 6.24-5.36 10.68-8.5 1.5-1.7.77-1.17.46-.92.26-.78.13-.7.05-.68-.05-.67-.13-.68-.25-.73-.4-.82-.65-.96-.2-.27-1.6-1.74-3.4-3.06-12-8.7-26.24-18.13-3.58-3.22-1.68-1.85-.92-1.24-.54-.9-.32-.7-.2-.56-.12-.48-.06-.42-.02-.35.03-.44.07-.48.15-.53.24-.63.4-.73.62-.92 1.04-1.23 1.9-1.83 4.25-3.24 33.87-21.7 2.62-2.52 1.5-1.76.42-.72.2-.54.05-.46-.04-.43-.14-.46-.3-.5-.57-.67-1.38-1.03-6.78-2.9-13.3-5.35-2.14-1.6-.04-.03-1-1.12-.66-1.15-.45-1.27-.24-1.57.1-2.24.35-1.43" stroke="#5e5e5e" stroke-width="2" stroke-linejoin="round" fill="none"/><path d="M800.22 357.57l-.06.94h-.1l-1.67.06-.25.04.07-1.16z" stroke="#5e5e5e" stroke-width=".05" fill="#5e5e5e"/><path d="M798.36 204.64l.98 14.97-9-2.28z" stroke="#5e5e5e" stroke-width="2" fill="#5e5e5e"/><path d="M880 794a6 6 0 0 1-6 6H762a6 6 0 0 0-6 6v8a2.3 2.3 0 0 1-4 1.54l-28-31.08a6.67 6.67 0 0 1 0-8.92l28-31.08a2.3 2.3 0 0 1 4 1.54v8a6 6 0 0 0 6 6h112a6 6 0 0 1 6 6z" stroke="#5e5e5e" stroke-width="3" fill="#fc9432"/><use xlink:href="#c" transform="matrix(1,-2.4492935982947064e-16,2.4492935982947064e-16,1,725,745) translate(20.517345679012337 39.65277777777778)"/><path d="M1020 314a6 6 0 0 1-6 6H902a6 6 0 0 0-6 6v8a2.3 2.3 0 0 1-4 1.54l-28-31.08a6.67 6.67 0 0 1 0-8.92l28-31.08a2.3 2.3 0 0 1 4 1.54v8a6 6 0 0 0 6 6h112a6 6 0 0 1 6 6z" stroke="#5e5e5e" stroke-width="3" fill="#cfe4ff"/><use xlink:href="#d" transform="matrix(1,-2.4492935982947064e-16,2.4492935982947064e-16,1,865.0000000000001,265) translate(29.15932098765431 39.65277777777778)"/><path d="M290.75 621.5a.75.75 0 0 1 .75-.75h667a.75.75 0 0 1 .75.75.75.75 0 0 1-.75.75h-667a.75.75 0 0 1-.75-.75z" stroke="#5e5e5e" stroke-width="1.5" fill="none"/><path d="M800 648.92a6 6 0 0 1 6-6h148a6 6 0 0 1 6 6v25a6 6 0 0 1-6 6H806a6 6 0 0 1-6-6z" stroke="#5e5e5e" stroke-width="3" fill="#fc9432"/><use xlink:href="#e" transform="matrix(1,0,0,1,805,647.9173228346456) translate(10.246913580246925 19.46527777777778)"/><use xlink:href="#f" transform="matrix(1,0,0,1,805,647.9173228346456) translate(80.49382716049382 19.46527777777778)"/><path d="M800 566a6 6 0 0 1 6-6h148a6 6 0 0 1 6 6v25a6 6 0 0 1-6 6H806a6 6 0 0 1-6-6z" stroke="#5e5e5e" stroke-width="3" fill="#cfe4ff"/><use xlink:href="#g" transform="matrix(1,0,0,1,805,565) translate(18.888888888888886 19.46527777777778)"/><use xlink:href="#f" transform="matrix(1,0,0,1,805,565) translate(71.85185185185185 19.46527777777778)"/><defs><path fill="#333" d="M194 0L95-120 63-95V0H30v-248h33v124l119-124h40L117-140 236 0h-42" id="h"/><use transform="matrix(0.16049382716049365,0,0,0.16049382716049365,0,0)" xlink:href="#h" id="a"/><path fill="#333" d="M127-220V0H93v-220H8v-28h204v28h-85" id="i"/><use transform="matrix(0.06172839506172839,0,0,0.06172839506172839,0,0)" xlink:href="#i" id="b"/><path fill="#333" d="M100-194c63 0 86 42 84 106H49c0 40 14 67 53 68 26 1 43-12 49-29l28 8c-11 28-37 45-77 45C44 4 14-33 15-96c1-61 26-98 85-98zm52 81c6-60-76-77-97-28-3 7-6 17-6 28h103" id="j"/><path fill="#333" d="M114-163C36-179 61-72 57 0H25l-1-190h30c1 12-1 29 2 39 6-27 23-49 58-41v29" id="k"/><path fill="#333" d="M117-194c89-4 53 116 60 194h-32v-121c0-31-8-49-39-48C34-167 62-67 57 0H25l-1-190h30c1 10-1 24 2 32 11-22 29-35 61-36" id="l"/><path fill="#333" d="M24 0v-261h32V0H24" id="m"/><path fill="#333" d="M16-82v-28h88v28H16" id="n"/><path fill="#333" d="M108 0H70L1-190h34L89-25l56-165h34" id="o"/><g id="c"><use transform="matrix(0.06172839506172839,0,0,0.06172839506172839,0,0)" xlink:href="#h"/><use transform="matrix(0.06172839506172839,0,0,0.06172839506172839,14.814814814814813,0)" xlink:href="#j"/><use transform="matrix(0.06172839506172839,0,0,0.06172839506172839,27.160493827160494,0)" xlink:href="#k"/><use transform="matrix(0.06172839506172839,0,0,0.06172839506172839,34.50617283950617,0)" xlink:href="#l"/><use transform="matrix(0.06172839506172839,0,0,0.06172839506172839,46.85185185185185,0)" xlink:href="#j"/><use transform="matrix(0.06172839506172839,0,0,0.06172839506172839,59.197530864197525,0)" xlink:href="#m"/><use transform="matrix(0.06172839506172839,0,0,0.06172839506172839,64.07407407407406,0)" xlink:href="#n"/><use transform="matrix(0.06172839506172839,0,0,0.06172839506172839,71.41975308641975,0)" xlink:href="#m"/><use transform="matrix(0.06172839506172839,0,0,0.06172839506172839,76.29629629629629,0)" xlink:href="#j"/><use transform="matrix(0.06172839506172839,0,0,0.06172839506172839,88.64197530864197,0)" xlink:href="#o"/><use transform="matrix(0.06172839506172839,0,0,0.06172839506172839,99.75308641975309,0)" xlink:href="#j"/><use transform="matrix(0.06172839506172839,0,0,0.06172839506172839,112.09876543209877,0)" xlink:href="#m"/></g><path fill="#333" d="M232-93c-1 65-40 97-104 97C67 4 28-28 28-90v-158h33c8 89-33 224 67 224 102 0 64-133 71-224h33v155" id="p"/><path fill="#333" d="M135-143c-3-34-86-38-87 0 15 53 115 12 119 90S17 21 10-45l28-5c4 36 97 45 98 0-10-56-113-15-118-90-4-57 82-63 122-42 12 7 21 19 24 35" id="q"/><g id="d"><use transform="matrix(0.06172839506172839,0,0,0.06172839506172839,0,0)" xlink:href="#p"/><use transform="matrix(0.06172839506172839,0,0,0.06172839506172839,15.987654320987653,0)" xlink:href="#q"/><use transform="matrix(0.06172839506172839,0,0,0.06172839506172839,27.098765432098766,0)" xlink:href="#j"/><use transform="matrix(0.06172839506172839,0,0,0.06172839506172839,39.44444444444444,0)" xlink:href="#k"/><use transform="matrix(0.06172839506172839,0,0,0.06172839506172839,46.79012345679012,0)" xlink:href="#n"/><use transform="matrix(0.06172839506172839,0,0,0.06172839506172839,54.1358024691358,0)" xlink:href="#m"/><use transform="matrix(0.06172839506172839,0,0,0.06172839506172839,59.01234567901234,0)" xlink:href="#j"/><use transform="matrix(0.06172839506172839,0,0,0.06172839506172839,71.35802469135803,0)" xlink:href="#o"/><use transform="matrix(0.06172839506172839,0,0,0.06172839506172839,82.46913580246914,0)" xlink:href="#j"/><use transform="matrix(0.06172839506172839,0,0,0.06172839506172839,94.81481481481482,0)" xlink:href="#m"/></g><g id="e"><use transform="matrix(0.06172839506172839,0,0,0.06172839506172839,0,0)" xlink:href="#h"/><use transform="matrix(0.06172839506172839,0,0,0.06172839506172839,14.814814814814813,0)" xlink:href="#j"/><use transform="matrix(0.06172839506172839,0,0,0.06172839506172839,27.160493827160494,0)" xlink:href="#k"/><use transform="matrix(0.06172839506172839,0,0,0.06172839506172839,34.50617283950617,0)" xlink:href="#l"/><use transform="matrix(0.06172839506172839,0,0,0.06172839506172839,46.85185185185185,0)" xlink:href="#j"/><use transform="matrix(0.06172839506172839,0,0,0.06172839506172839,59.197530864197525,0)" xlink:href="#m"/></g><path fill="#333" d="M115-194c55 1 70 41 70 98S169 2 115 4C84 4 66-9 55-30l1 105H24l-1-265h31l2 30c10-21 28-34 59-34zm-8 174c40 0 45-34 45-75s-6-73-45-74c-42 0-51 32-51 76 0 43 10 73 51 73" id="r"/><path fill="#333" d="M141-36C126-15 110 5 73 4 37 3 15-17 15-53c-1-64 63-63 125-63 3-35-9-54-41-54-24 1-41 7-42 31l-33-3c5-37 33-52 76-52 45 0 72 20 72 64v82c-1 20 7 32 28 27v20c-31 9-61-2-59-35zM48-53c0 20 12 33 32 33 41-3 63-29 60-74-43 2-92-5-92 41" id="s"/><path fill="#333" d="M96-169c-40 0-48 33-48 73s9 75 48 75c24 0 41-14 43-38l32 2c-6 37-31 61-74 61-59 0-76-41-82-99-10-93 101-131 147-64 4 7 5 14 7 22l-32 3c-4-21-16-35-41-35" id="t"/><g id="f"><use transform="matrix(0.06172839506172839,0,0,0.06172839506172839,0,0)" xlink:href="#q"/><use transform="matrix(0.06172839506172839,0,0,0.06172839506172839,11.11111111111111,0)" xlink:href="#r"/><use transform="matrix(0.06172839506172839,0,0,0.06172839506172839,23.45679012345679,0)" xlink:href="#s"/><use transform="matrix(0.06172839506172839,0,0,0.06172839506172839,35.80246913580247,0)" xlink:href="#t"/><use transform="matrix(0.06172839506172839,0,0,0.06172839506172839,46.91358024691358,0)" xlink:href="#j"/></g><g id="g"><use transform="matrix(0.06172839506172839,0,0,0.06172839506172839,0,0)" xlink:href="#p"/><use transform="matrix(0.06172839506172839,0,0,0.06172839506172839,15.987654320987653,0)" xlink:href="#q"/><use transform="matrix(0.06172839506172839,0,0,0.06172839506172839,27.098765432098766,0)" xlink:href="#j"/><use transform="matrix(0.06172839506172839,0,0,0.06172839506172839,39.44444444444444,0)" xlink:href="#k"/></g></defs></g></svg>